<svg width="20" height="16" viewBox="0 0 20 16" fill="none" xmlns="http://www.w3.org/2000/svg">
<path fill-rule="evenodd" clip-rule="evenodd" d="M13.4985 1.97046H18.7459L19.4376 2.65656V15.0063L18.7459 15.6924H0.761294L0.0695801 15.0063V2.65656L0.761294 1.97046H6.00864L7.1887 0.798607L7.67843 0.598267H11.8287L12.3185 0.798607L13.4985 1.97046ZM1.45301 14.3202H18.0541V3.34266H13.2121L12.7224 3.14232L11.5423 1.97046H7.9648L6.78474 3.14232L6.29501 3.34266H1.45301V14.3202ZM3.52815 4.71485C3.3447 4.71485 3.16876 4.78714 3.03903 4.9158C2.90931 5.04447 2.83644 5.21898 2.83644 5.40095C2.83644 5.58291 2.90931 5.75742 3.03903 5.88609C3.16876 6.01476 3.3447 6.08705 3.52815 6.08705C3.7116 6.08705 3.88754 6.01476 4.01727 5.88609C4.14699 5.75742 4.21986 5.58291 4.21986 5.40095C4.21986 5.21898 4.14699 5.04447 4.01727 4.9158C3.88754 4.78714 3.7116 4.71485 3.52815 4.71485ZM9.75358 6.08705C10.4874 6.08705 11.1912 6.37619 11.71 6.89086C12.2289 7.40553 12.5204 8.10358 12.5204 8.83144C12.5204 9.55929 12.2289 10.2573 11.71 10.772C11.1912 11.2867 10.4874 11.5758 9.75358 11.5758C9.01976 11.5758 8.316 11.2867 7.79711 10.772C7.27823 10.2573 6.98672 9.55929 6.98672 8.83144C6.98672 8.10358 7.27823 7.40553 7.79711 6.89086C8.316 6.37619 9.01976 6.08705 9.75358 6.08705ZM9.75358 4.71485C8.65285 4.71485 7.59721 5.14856 6.81888 5.92057C6.04055 6.69258 5.60329 7.73965 5.60329 8.83144C5.60329 9.92322 6.04055 10.9703 6.81888 11.7423C7.59721 12.5143 8.65285 12.948 9.75358 12.948C10.8543 12.948 11.9099 12.5143 12.6883 11.7423C13.4666 10.9703 13.9039 9.92322 13.9039 8.83144C13.9039 7.73965 13.4666 6.69258 12.6883 5.92057C11.9099 5.14856 10.8543 4.71485 9.75358 4.71485Z" fill="black" fill-opacity="0.5"/>
</svg>
