<svg width="16" height="14" viewBox="0 0 16 14" fill="none" xmlns="http://www.w3.org/2000/svg">
<path d="M0.972412 3.12024C0.972412 2.45304 1.23963 1.81317 1.71527 1.34138C2.19092 0.869598 2.83603 0.604553 3.5087 0.604553H7.56675C8.23942 0.604553 8.88453 0.869598 9.36018 1.34138C9.83582 1.81317 10.103 2.45304 10.103 3.12024V3.62338H9.08852V3.12024C9.08852 2.71992 8.92819 2.336 8.64281 2.05293C8.35742 1.76986 7.97035 1.61083 7.56675 1.61083H3.5087C3.1051 1.61083 2.71803 1.76986 2.43264 2.05293C2.14725 2.336 1.98693 2.71992 1.98693 3.12024V7.14535C1.98693 7.54567 2.14725 7.92959 2.43264 8.21267C2.71803 8.49574 3.1051 8.65476 3.5087 8.65476H9.17476C9.29442 8.31906 9.52987 8.03613 9.83951 7.85596C10.1491 7.6758 10.513 7.61001 10.8668 7.67022C11.2206 7.73044 11.5416 7.91277 11.773 8.185C12.0044 8.45723 12.1313 8.80184 12.1313 9.1579C12.1313 9.51396 12.0044 9.85857 11.773 10.1308C11.5416 10.403 11.2206 10.5854 10.8668 10.6456C10.513 10.7058 10.1491 10.64 9.83951 10.4598C9.52987 10.2797 9.29442 9.99674 9.17476 9.66104H3.5087C2.83603 9.66104 2.19092 9.39599 1.71527 8.92421C1.23963 8.45243 0.972412 7.81255 0.972412 7.14535V3.12024ZM6.04498 10.6673V11.1705C6.04498 11.8377 6.3122 12.4775 6.78784 12.9493C7.26349 13.4211 7.9086 13.6861 8.58126 13.6861H12.6393C13.312 13.6861 13.9571 13.4211 14.4327 12.9493C14.9084 12.4775 15.1756 11.8377 15.1756 11.1705V7.14535C15.1756 6.47815 14.9084 5.83827 14.4327 5.36649C13.9571 4.8947 13.312 4.62966 12.6393 4.62966H6.97326C6.8536 4.29396 6.61815 4.01102 6.30851 3.83086C5.99888 3.6507 5.635 3.58491 5.28119 3.64512C4.92738 3.70533 4.60642 3.88767 4.37504 4.1599C4.14366 4.43213 4.01675 4.77673 4.01675 5.1328C4.01675 5.48886 4.14366 5.83346 4.37504 6.10569C4.60642 6.37793 4.92738 6.56026 5.28119 6.62047C5.635 6.68068 5.99888 6.61489 6.30851 6.43473C6.61815 6.25457 6.8536 5.97163 6.97326 5.63593H12.6393C13.0429 5.63593 13.43 5.79496 13.7154 6.07803C14.0008 6.3611 14.1611 6.74503 14.1611 7.14535V11.1705C14.1611 11.5708 14.0008 11.9547 13.7154 12.2378C13.43 12.5208 13.0429 12.6799 12.6393 12.6799H8.58126C8.17767 12.6799 7.7906 12.5208 7.50521 12.2378C7.21982 11.9547 7.05949 11.5708 7.05949 11.1705V10.6673H6.04498Z" fill="black"/>
</svg>
