<svg width="26" height="26" viewBox="0 0 26 26" fill="none" xmlns="http://www.w3.org/2000/svg">
<g clip-path="url(#clip0_1_3504)">
<path d="M11.9781 13.4779L7.47814 13.4779C7.06393 13.4779 6.72814 13.1421 6.72814 12.7279C6.72814 12.3137 7.06393 11.9779 7.47814 11.9779L11.9781 11.9779L11.9781 7.47794C11.9781 7.06372 12.3139 6.72794 12.7281 6.72794C13.1424 6.72794 13.4781 7.06372 13.4781 7.47794L13.4781 11.9779L17.9781 11.9779C18.3924 11.9779 18.7281 12.3137 18.7281 12.7279C18.7281 13.1421 18.3924 13.4779 17.9781 13.4779H13.4781L13.4781 17.9779C13.4781 18.3921 13.1424 18.7279 12.7281 18.7279C12.3139 18.7279 11.9781 18.3921 11.9781 17.9779L11.9781 13.4779Z" fill="#C2F051"/>
</g>
<defs>
<clipPath id="clip0_1_3504">
<path d="M1.59099 14.3189C0.712311 13.4402 0.712311 12.0156 1.59099 11.1369L11.1369 1.591C12.0156 0.712324 13.4402 0.712325 14.3189 1.591L23.8649 11.1369C24.7435 12.0156 24.7435 13.4402 23.8649 14.3189L14.3189 23.8649C13.4402 24.7435 12.0156 24.7435 11.1369 23.8649L1.59099 14.3189Z" fill="white"/>
</clipPath>
</defs>
</svg>
