<svg width="6" height="26" viewBox="0 0 6 26" fill="none" xmlns="http://www.w3.org/2000/svg">
<path d="M2.70901 5.35774C4.10977 5.35774 5.2453 4.23142 5.2453 2.84205C5.2453 1.45267 4.10977 0.326355 2.70901 0.326355C1.30826 0.326355 0.172729 1.45267 0.172729 2.84205C0.172729 4.23142 1.30826 5.35774 2.70901 5.35774Z" fill="#1A66FF"/>
<path d="M2.70901 15.4205C4.10977 15.4205 5.2453 14.2942 5.2453 12.9048C5.2453 11.5154 4.10977 10.3891 2.70901 10.3891C1.30826 10.3891 0.172729 11.5154 0.172729 12.9048C0.172729 14.2942 1.30826 15.4205 2.70901 15.4205Z" fill="#1A66FF"/>
<path d="M2.70901 25.4833C4.10977 25.4833 5.2453 24.357 5.2453 22.9676C5.2453 21.5782 4.10977 20.4519 2.70901 20.4519C1.30826 20.4519 0.172729 21.5782 0.172729 22.9676C0.172729 24.357 1.30826 25.4833 2.70901 25.4833Z" fill="#1A66FF"/>
</svg>
