<svg width="442" height="77" viewBox="0 0 442 77" fill="none" xmlns="http://www.w3.org/2000/svg">
<rect x="26.1466" y="0.922546" width="414.936" height="50.3138" rx="10" fill="#CFCFCF"/>
<path d="M33.9956 30.9266C34.689 30.4343 35.6179 30.4343 36.3112 30.9266L59.8044 47.6056C61.3933 48.7337 60.5952 51.2364 58.6466 51.2364H11.6603C9.71169 51.2364 8.91361 48.7337 10.5025 47.6056L33.9956 30.9266Z" fill="#CFCFCF"/>
<path d="M56.5625 20.8842V32.0042H54.7385V20.8842H56.5625ZM62.5055 27.5562C62.5055 26.6708 62.6868 25.8868 63.0495 25.2042C63.4228 24.5215 63.9241 23.9935 64.5535 23.6202C65.1935 23.2362 65.8975 23.0442 66.6655 23.0442C67.3588 23.0442 67.9615 23.1828 68.4735 23.4602C68.9961 23.7268 69.4121 24.0628 69.7215 24.4682V23.1882H71.5615V32.0042H69.7215V30.6922C69.4121 31.1082 68.9908 31.4548 68.4575 31.7322C67.9241 32.0095 67.3161 32.1482 66.6335 32.1482C65.8761 32.1482 65.1828 31.9562 64.5535 31.5722C63.9241 31.1775 63.4228 30.6335 63.0495 29.9402C62.6868 29.2362 62.5055 28.4415 62.5055 27.5562ZM69.7215 27.5882C69.7215 26.9802 69.5935 26.4522 69.3375 26.0042C69.0921 25.5562 68.7668 25.2148 68.3615 24.9802C67.9561 24.7455 67.5188 24.6282 67.0495 24.6282C66.5801 24.6282 66.1428 24.7455 65.7375 24.9802C65.3321 25.2042 65.0015 25.5402 64.7455 25.9882C64.5001 26.4255 64.3775 26.9482 64.3775 27.5562C64.3775 28.1642 64.5001 28.6975 64.7455 29.1562C65.0015 29.6148 65.3321 29.9668 65.7375 30.2122C66.1535 30.4468 66.5908 30.5642 67.0495 30.5642C67.5188 30.5642 67.9561 30.4468 68.3615 30.2122C68.7668 29.9775 69.0921 29.6362 69.3375 29.1882C69.5935 28.7295 69.7215 28.1962 69.7215 27.5882ZM84.6292 23.0442C85.3225 23.0442 85.9412 23.1882 86.4852 23.4762C87.0399 23.7642 87.4719 24.1908 87.7812 24.7562C88.1012 25.3215 88.2612 26.0042 88.2612 26.8042V32.0042H86.4532V27.0762C86.4532 26.2868 86.2559 25.6842 85.8612 25.2682C85.4665 24.8415 84.9279 24.6282 84.2452 24.6282C83.5625 24.6282 83.0185 24.8415 82.6132 25.2682C82.2185 25.6842 82.0212 26.2868 82.0212 27.0762V32.0042H80.2132V27.0762C80.2132 26.2868 80.0159 25.6842 79.6212 25.2682C79.2265 24.8415 78.6879 24.6282 78.0052 24.6282C77.3225 24.6282 76.7785 24.8415 76.3732 25.2682C75.9785 25.6842 75.7812 26.2868 75.7812 27.0762V32.0042H73.9572V23.1882H75.7812V24.1962C76.0799 23.8335 76.4585 23.5508 76.9172 23.3482C77.3759 23.1455 77.8665 23.0442 78.3892 23.0442C79.0932 23.0442 79.7225 23.1935 80.2772 23.4922C80.8319 23.7908 81.2585 24.2228 81.5572 24.7882C81.8239 24.2548 82.2399 23.8335 82.8052 23.5242C83.3705 23.2042 83.9785 23.0442 84.6292 23.0442ZM94.1305 27.5562C94.1305 26.6708 94.3118 25.8868 94.6745 25.2042C95.0478 24.5215 95.5491 23.9935 96.1785 23.6202C96.8185 23.2362 97.5278 23.0442 98.3065 23.0442C98.8825 23.0442 99.4478 23.1722 100.002 23.4282C100.568 23.6735 101.016 24.0042 101.346 24.4202V20.1642H103.186V32.0042H101.346V30.6762C101.048 31.1028 100.632 31.4548 100.098 31.7322C99.5758 32.0095 98.9731 32.1482 98.2905 32.1482C97.5225 32.1482 96.8185 31.9562 96.1785 31.5722C95.5491 31.1775 95.0478 30.6335 94.6745 29.9402C94.3118 29.2362 94.1305 28.4415 94.1305 27.5562ZM101.346 27.5882C101.346 26.9802 101.218 26.4522 100.962 26.0042C100.717 25.5562 100.392 25.2148 99.9865 24.9802C99.5811 24.7455 99.1438 24.6282 98.6745 24.6282C98.2051 24.6282 97.7678 24.7455 97.3625 24.9802C96.9571 25.2042 96.6265 25.5402 96.3705 25.9882C96.1251 26.4255 96.0025 26.9482 96.0025 27.5562C96.0025 28.1642 96.1251 28.6975 96.3705 29.1562C96.6265 29.6148 96.9571 29.9668 97.3625 30.2122C97.7785 30.4468 98.2158 30.5642 98.6745 30.5642C99.1438 30.5642 99.5811 30.4468 99.9865 30.2122C100.392 29.9775 100.717 29.6362 100.962 29.1882C101.218 28.7295 101.346 28.1962 101.346 27.5882ZM109.406 32.1482C108.574 32.1482 107.822 31.9615 107.15 31.5882C106.478 31.2042 105.95 30.6708 105.566 29.9882C105.182 29.2948 104.99 28.4948 104.99 27.5882C104.99 26.6922 105.188 25.8975 105.582 25.2042C105.977 24.5108 106.516 23.9775 107.198 23.6042C107.881 23.2308 108.644 23.0442 109.486 23.0442C110.329 23.0442 111.092 23.2308 111.774 23.6042C112.457 23.9775 112.996 24.5108 113.39 25.2042C113.785 25.8975 113.982 26.6922 113.982 27.5882C113.982 28.4842 113.78 29.2788 113.374 29.9722C112.969 30.6655 112.414 31.2042 111.71 31.5882C111.017 31.9615 110.249 32.1482 109.406 32.1482ZM109.406 30.5642C109.876 30.5642 110.313 30.4522 110.718 30.2282C111.134 30.0042 111.47 29.6682 111.726 29.2202C111.982 28.7722 112.11 28.2282 112.11 27.5882C112.11 26.9482 111.988 26.4095 111.742 25.9722C111.497 25.5242 111.172 25.1882 110.766 24.9642C110.361 24.7402 109.924 24.6282 109.454 24.6282C108.985 24.6282 108.548 24.7402 108.142 24.9642C107.748 25.1882 107.433 25.5242 107.198 25.9722C106.964 26.4095 106.846 26.9482 106.846 27.5882C106.846 28.5375 107.086 29.2735 107.566 29.7962C108.057 30.3082 108.67 30.5642 109.406 30.5642ZM116.713 22.0202C116.383 22.0202 116.105 21.9082 115.881 21.6842C115.657 21.4602 115.545 21.1828 115.545 20.8522C115.545 20.5215 115.657 20.2442 115.881 20.0202C116.105 19.7962 116.383 19.6842 116.713 19.6842C117.033 19.6842 117.305 19.7962 117.529 20.0202C117.753 20.2442 117.865 20.5215 117.865 20.8522C117.865 21.1828 117.753 21.4602 117.529 21.6842C117.305 21.9082 117.033 22.0202 116.713 22.0202ZM117.609 23.1882V32.0042H115.785V23.1882H117.609ZM124.452 23.0442C125.145 23.0442 125.764 23.1882 126.308 23.4762C126.863 23.7642 127.295 24.1908 127.604 24.7562C127.913 25.3215 128.068 26.0042 128.068 26.8042V32.0042H126.26V27.0762C126.26 26.2868 126.063 25.6842 125.668 25.2682C125.273 24.8415 124.735 24.6282 124.052 24.6282C123.369 24.6282 122.825 24.8415 122.42 25.2682C122.025 25.6842 121.828 26.2868 121.828 27.0762V32.0042H120.004V23.1882H121.828V24.1962C122.127 23.8335 122.505 23.5508 122.964 23.3482C123.433 23.1455 123.929 23.0442 124.452 23.0442ZM133.947 23.0442C134.629 23.0442 135.232 23.1828 135.755 23.4602C136.288 23.7268 136.704 24.0628 137.003 24.4682V23.1882H138.843V32.1482C138.843 32.9588 138.672 33.6788 138.331 34.3082C137.989 34.9482 137.493 35.4495 136.843 35.8122C136.203 36.1748 135.435 36.3562 134.539 36.3562C133.344 36.3562 132.352 36.0735 131.563 35.5082C130.773 34.9535 130.325 34.1962 130.219 33.2362H132.027C132.165 33.6948 132.459 34.0628 132.907 34.3402C133.365 34.6282 133.909 34.7722 134.539 34.7722C135.275 34.7722 135.867 34.5482 136.315 34.1002C136.773 33.6522 137.003 33.0015 137.003 32.1482V30.6762C136.693 31.0922 136.272 31.4442 135.739 31.7322C135.216 32.0095 134.619 32.1482 133.947 32.1482C133.179 32.1482 132.475 31.9562 131.835 31.5722C131.205 31.1775 130.704 30.6335 130.331 29.9402C129.968 29.2362 129.787 28.4415 129.787 27.5562C129.787 26.6708 129.968 25.8868 130.331 25.2042C130.704 24.5215 131.205 23.9935 131.835 23.6202C132.475 23.2362 133.179 23.0442 133.947 23.0442ZM137.003 27.5882C137.003 26.9802 136.875 26.4522 136.619 26.0042C136.373 25.5562 136.048 25.2148 135.643 24.9802C135.237 24.7455 134.8 24.6282 134.331 24.6282C133.861 24.6282 133.424 24.7455 133.019 24.9802C132.613 25.2042 132.283 25.5402 132.027 25.9882C131.781 26.4255 131.659 26.9482 131.659 27.5562C131.659 28.1642 131.781 28.6975 132.027 29.1562C132.283 29.6148 132.613 29.9668 133.019 30.2122C133.435 30.4468 133.872 30.5642 134.331 30.5642C134.8 30.5642 135.237 30.4468 135.643 30.2122C136.048 29.9775 136.373 29.6362 136.619 29.1882C136.875 28.7295 137.003 28.1962 137.003 27.5882ZM157.235 23.1882L154.499 32.0042H152.579L150.803 25.4922L149.027 32.0042H147.107L144.355 23.1882H146.211L148.051 30.2762L149.923 23.1882H151.827L153.619 30.2442L155.443 23.1882H157.235ZM166.678 27.3802C166.678 27.7108 166.656 28.0095 166.614 28.2762H159.878C159.931 28.9802 160.192 29.5455 160.662 29.9722C161.131 30.3988 161.707 30.6122 162.39 30.6122C163.371 30.6122 164.064 30.2015 164.47 29.3802H166.438C166.171 30.1908 165.686 30.8575 164.982 31.3802C164.288 31.8922 163.424 32.1482 162.39 32.1482C161.547 32.1482 160.79 31.9615 160.118 31.5882C159.456 31.2042 158.934 30.6708 158.55 29.9882C158.176 29.2948 157.99 28.4948 157.99 27.5882C157.99 26.6815 158.171 25.8868 158.534 25.2042C158.907 24.5108 159.424 23.9775 160.086 23.6042C160.758 23.2308 161.526 23.0442 162.39 23.0442C163.222 23.0442 163.963 23.2255 164.614 23.5882C165.264 23.9508 165.771 24.4628 166.134 25.1242C166.496 25.7748 166.678 26.5268 166.678 27.3802ZM164.774 26.8042C164.763 26.1322 164.523 25.5935 164.054 25.1882C163.584 24.7828 163.003 24.5802 162.31 24.5802C161.68 24.5802 161.142 24.7828 160.694 25.1882C160.246 25.5828 159.979 26.1215 159.894 26.8042H164.774ZM170.297 20.1642V32.0042H168.473V20.1642H170.297ZM174.516 20.1642V32.0042H172.692V20.1642H174.516ZM177.646 32.1162C177.316 32.1162 177.038 32.0042 176.814 31.7802C176.59 31.5562 176.478 31.2788 176.478 30.9482C176.478 30.6175 176.59 30.3402 176.814 30.1162C177.038 29.8922 177.316 29.7802 177.646 29.7802C177.966 29.7802 178.238 29.8922 178.462 30.1162C178.686 30.3402 178.798 30.6175 178.798 30.9482C178.798 31.2788 178.686 31.5562 178.462 31.7802C178.238 32.0042 177.966 32.1162 177.646 32.1162ZM184.318 26.4202C184.318 25.3322 184.569 24.3562 185.07 23.4922C185.582 22.6282 186.27 21.9562 187.134 21.4762C188.009 20.9855 188.963 20.7402 189.998 20.7402C191.182 20.7402 192.233 21.0335 193.15 21.6202C194.078 22.1962 194.75 23.0175 195.166 24.0842H192.974C192.686 23.4975 192.286 23.0602 191.774 22.7722C191.262 22.4842 190.67 22.3402 189.998 22.3402C189.262 22.3402 188.606 22.5055 188.03 22.8362C187.454 23.1668 187.001 23.6415 186.67 24.2602C186.35 24.8788 186.19 25.5988 186.19 26.4202C186.19 27.2415 186.35 27.9615 186.67 28.5802C187.001 29.1988 187.454 29.6788 188.03 30.0202C188.606 30.3508 189.262 30.5162 189.998 30.5162C190.67 30.5162 191.262 30.3722 191.774 30.0842C192.286 29.7962 192.686 29.3588 192.974 28.7722H195.166C194.75 29.8388 194.078 30.6602 193.15 31.2362C192.233 31.8122 191.182 32.1002 189.998 32.1002C188.953 32.1002 187.998 31.8602 187.134 31.3802C186.27 30.8895 185.582 30.2122 185.07 29.3482C184.569 28.4842 184.318 27.5082 184.318 26.4202ZM196.693 27.5562C196.693 26.6708 196.874 25.8868 197.237 25.2042C197.61 24.5215 198.112 23.9935 198.741 23.6202C199.381 23.2362 200.085 23.0442 200.853 23.0442C201.546 23.0442 202.149 23.1828 202.661 23.4602C203.184 23.7268 203.6 24.0628 203.909 24.4682V23.1882H205.749V32.0042H203.909V30.6922C203.6 31.1082 203.178 31.4548 202.645 31.7322C202.112 32.0095 201.504 32.1482 200.821 32.1482C200.064 32.1482 199.37 31.9562 198.741 31.5722C198.112 31.1775 197.61 30.6335 197.237 29.9402C196.874 29.2362 196.693 28.4415 196.693 27.5562ZM203.909 27.5882C203.909 26.9802 203.781 26.4522 203.525 26.0042C203.28 25.5562 202.954 25.2148 202.549 24.9802C202.144 24.7455 201.706 24.6282 201.237 24.6282C200.768 24.6282 200.33 24.7455 199.925 24.9802C199.52 25.2042 199.189 25.5402 198.933 25.9882C198.688 26.4255 198.565 26.9482 198.565 27.5562C198.565 28.1642 198.688 28.6975 198.933 29.1562C199.189 29.6148 199.52 29.9668 199.925 30.2122C200.341 30.4468 200.778 30.5642 201.237 30.5642C201.706 30.5642 202.144 30.4468 202.549 30.2122C202.954 29.9775 203.28 29.6362 203.525 29.1882C203.781 28.7295 203.909 28.1962 203.909 27.5882ZM212.593 23.0442C213.286 23.0442 213.905 23.1882 214.449 23.4762C215.003 23.7642 215.435 24.1908 215.745 24.7562C216.054 25.3215 216.209 26.0042 216.209 26.8042V32.0042H214.401V27.0762C214.401 26.2868 214.203 25.6842 213.809 25.2682C213.414 24.8415 212.875 24.6282 212.193 24.6282C211.51 24.6282 210.966 24.8415 210.561 25.2682C210.166 25.6842 209.969 26.2868 209.969 27.0762V32.0042H208.145V23.1882H209.969V24.1962C210.267 23.8335 210.646 23.5508 211.105 23.3482C211.574 23.1455 212.07 23.0442 212.593 23.0442ZM234.532 23.1882L231.796 32.0042H229.876L228.1 25.4922L226.324 32.0042H224.404L221.652 23.1882H223.508L225.348 30.2762L227.22 23.1882H229.124L230.916 30.2442L232.74 23.1882H234.532ZM243.975 27.3802C243.975 27.7108 243.953 28.0095 243.911 28.2762H237.175C237.228 28.9802 237.489 29.5455 237.959 29.9722C238.428 30.3988 239.004 30.6122 239.687 30.6122C240.668 30.6122 241.361 30.2015 241.767 29.3802H243.735C243.468 30.1908 242.983 30.8575 242.279 31.3802C241.585 31.8922 240.721 32.1482 239.687 32.1482C238.844 32.1482 238.087 31.9615 237.415 31.5882C236.753 31.2042 236.231 30.6708 235.847 29.9882C235.473 29.2948 235.287 28.4948 235.287 27.5882C235.287 26.6815 235.468 25.8868 235.831 25.2042C236.204 24.5108 236.721 23.9775 237.383 23.6042C238.055 23.2308 238.823 23.0442 239.687 23.0442C240.519 23.0442 241.26 23.2255 241.911 23.5882C242.561 23.9508 243.068 24.4628 243.431 25.1242C243.793 25.7748 243.975 26.5268 243.975 27.3802ZM242.071 26.8042C242.06 26.1322 241.82 25.5935 241.351 25.1882C240.881 24.7828 240.3 24.5802 239.607 24.5802C238.977 24.5802 238.439 24.7828 237.991 25.1882C237.543 25.5828 237.276 26.1215 237.191 26.8042H242.071ZM260.598 23.0442C261.291 23.0442 261.91 23.1882 262.454 23.4762C263.009 23.7642 263.441 24.1908 263.75 24.7562C264.07 25.3215 264.23 26.0042 264.23 26.8042V32.0042H262.422V27.0762C262.422 26.2868 262.225 25.6842 261.83 25.2682C261.435 24.8415 260.897 24.6282 260.214 24.6282C259.531 24.6282 258.987 24.8415 258.582 25.2682C258.187 25.6842 257.99 26.2868 257.99 27.0762V32.0042H256.182V27.0762C256.182 26.2868 255.985 25.6842 255.59 25.2682C255.195 24.8415 254.657 24.6282 253.974 24.6282C253.291 24.6282 252.747 24.8415 252.342 25.2682C251.947 25.6842 251.75 26.2868 251.75 27.0762V32.0042H249.926V23.1882H251.75V24.1962C252.049 23.8335 252.427 23.5508 252.886 23.3482C253.345 23.1455 253.835 23.0442 254.358 23.0442C255.062 23.0442 255.691 23.1935 256.246 23.4922C256.801 23.7908 257.227 24.2228 257.526 24.7882C257.793 24.2548 258.209 23.8335 258.774 23.5242C259.339 23.2042 259.947 23.0442 260.598 23.0442ZM274.631 27.3802C274.631 27.7108 274.61 28.0095 274.567 28.2762H267.831C267.884 28.9802 268.146 29.5455 268.615 29.9722C269.084 30.3988 269.66 30.6122 270.343 30.6122C271.324 30.6122 272.018 30.2015 272.423 29.3802H274.391C274.124 30.1908 273.639 30.8575 272.935 31.3802C272.242 31.8922 271.378 32.1482 270.343 32.1482C269.5 32.1482 268.743 31.9615 268.071 31.5882C267.41 31.2042 266.887 30.6708 266.503 29.9882C266.13 29.2948 265.943 28.4948 265.943 27.5882C265.943 26.6815 266.124 25.8868 266.487 25.2042C266.86 24.5108 267.378 23.9775 268.039 23.6042C268.711 23.2308 269.479 23.0442 270.343 23.0442C271.175 23.0442 271.916 23.2255 272.567 23.5882C273.218 23.9508 273.724 24.4628 274.087 25.1242C274.45 25.7748 274.631 26.5268 274.631 27.3802ZM272.727 26.8042C272.716 26.1322 272.476 25.5935 272.007 25.1882C271.538 24.7828 270.956 24.5802 270.263 24.5802C269.634 24.5802 269.095 24.7828 268.647 25.1882C268.199 25.5828 267.932 26.1215 267.847 26.8042H272.727ZM284.506 27.3802C284.506 27.7108 284.485 28.0095 284.442 28.2762H277.706C277.759 28.9802 278.021 29.5455 278.49 29.9722C278.959 30.3988 279.535 30.6122 280.218 30.6122C281.199 30.6122 281.893 30.2015 282.298 29.3802H284.266C283.999 30.1908 283.514 30.8575 282.81 31.3802C282.117 31.8922 281.253 32.1482 280.218 32.1482C279.375 32.1482 278.618 31.9615 277.946 31.5882C277.285 31.2042 276.762 30.6708 276.378 29.9882C276.005 29.2948 275.818 28.4948 275.818 27.5882C275.818 26.6815 275.999 25.8868 276.362 25.2042C276.735 24.5108 277.253 23.9775 277.914 23.6042C278.586 23.2308 279.354 23.0442 280.218 23.0442C281.05 23.0442 281.791 23.2255 282.442 23.5882C283.093 23.9508 283.599 24.4628 283.962 25.1242C284.325 25.7748 284.506 26.5268 284.506 27.3802ZM282.602 26.8042C282.591 26.1322 282.351 25.5935 281.882 25.1882C281.413 24.7828 280.831 24.5802 280.138 24.5802C279.509 24.5802 278.97 24.7828 278.522 25.1882C278.074 25.5828 277.807 26.1215 277.722 26.8042H282.602ZM288.429 24.6762V29.5562C288.429 29.8868 288.504 30.1268 288.653 30.2762C288.813 30.4148 289.08 30.4842 289.453 30.4842H290.573V32.0042H289.133C288.312 32.0042 287.682 31.8122 287.245 31.4282C286.808 31.0442 286.589 30.4202 286.589 29.5562V24.6762H285.549V23.1882H286.589V20.9962H288.429V23.1882H290.573V24.6762H288.429ZM304.394 23.1882V32.0042H302.57V30.9642C302.282 31.3268 301.904 31.6148 301.434 31.8282C300.976 32.0308 300.485 32.1322 299.962 32.1322C299.269 32.1322 298.645 31.9882 298.09 31.7002C297.546 31.4122 297.114 30.9855 296.794 30.4202C296.485 29.8548 296.33 29.1722 296.33 28.3722V23.1882H298.138V28.1002C298.138 28.8895 298.336 29.4975 298.73 29.9242C299.125 30.3402 299.664 30.5482 300.346 30.5482C301.029 30.5482 301.568 30.3402 301.962 29.9242C302.368 29.4975 302.57 28.8895 302.57 28.1002V23.1882H304.394ZM308.625 24.4842C308.934 24.0788 309.356 23.7375 309.889 23.4602C310.422 23.1828 311.025 23.0442 311.697 23.0442C312.465 23.0442 313.164 23.2362 313.793 23.6202C314.433 23.9935 314.934 24.5215 315.297 25.2042C315.66 25.8868 315.841 26.6708 315.841 27.5562C315.841 28.4415 315.66 29.2362 315.297 29.9402C314.934 30.6335 314.433 31.1775 313.793 31.5722C313.164 31.9562 312.465 32.1482 311.697 32.1482C311.025 32.1482 310.428 32.0148 309.905 31.7482C309.382 31.4708 308.956 31.1295 308.625 30.7242V36.1962H306.801V23.1882H308.625V24.4842ZM313.985 27.5562C313.985 26.9482 313.857 26.4255 313.601 25.9882C313.356 25.5402 313.025 25.2042 312.609 24.9802C312.204 24.7455 311.766 24.6282 311.297 24.6282C310.838 24.6282 310.401 24.7455 309.985 24.9802C309.58 25.2148 309.249 25.5562 308.993 26.0042C308.748 26.4522 308.625 26.9802 308.625 27.5882C308.625 28.1962 308.748 28.7295 308.993 29.1882C309.249 29.6362 309.58 29.9775 309.985 30.2122C310.401 30.4468 310.838 30.5642 311.297 30.5642C311.766 30.5642 312.204 30.4468 312.609 30.2122C313.025 29.9668 313.356 29.6148 313.601 29.1562C313.857 28.6975 313.985 28.1642 313.985 27.5562ZM323.929 24.6762V29.5562C323.929 29.8868 324.004 30.1268 324.153 30.2762C324.313 30.4148 324.58 30.4842 324.953 30.4842H326.073V32.0042H324.633C323.812 32.0042 323.182 31.8122 322.745 31.4282C322.308 31.0442 322.089 30.4202 322.089 29.5562V24.6762H321.049V23.1882H322.089V20.9962H323.929V23.1882H326.073V24.6762H323.929ZM331.578 32.1482C330.746 32.1482 329.994 31.9615 329.322 31.5882C328.65 31.2042 328.122 30.6708 327.738 29.9882C327.354 29.2948 327.162 28.4948 327.162 27.5882C327.162 26.6922 327.359 25.8975 327.754 25.2042C328.149 24.5108 328.687 23.9775 329.37 23.6042C330.053 23.2308 330.815 23.0442 331.658 23.0442C332.501 23.0442 333.263 23.2308 333.946 23.6042C334.629 23.9775 335.167 24.5108 335.562 25.2042C335.957 25.8975 336.154 26.6922 336.154 27.5882C336.154 28.4842 335.951 29.2788 335.546 29.9722C335.141 30.6655 334.586 31.2042 333.882 31.5882C333.189 31.9615 332.421 32.1482 331.578 32.1482ZM331.578 30.5642C332.047 30.5642 332.485 30.4522 332.89 30.2282C333.306 30.0042 333.642 29.6682 333.898 29.2202C334.154 28.7722 334.282 28.2282 334.282 27.5882C334.282 26.9482 334.159 26.4095 333.914 25.9722C333.669 25.5242 333.343 25.1882 332.938 24.9642C332.533 24.7402 332.095 24.6282 331.626 24.6282C331.157 24.6282 330.719 24.7402 330.314 24.9642C329.919 25.1882 329.605 25.5242 329.37 25.9722C329.135 26.4095 329.018 26.9482 329.018 27.5882C329.018 28.5375 329.258 29.2735 329.738 29.7962C330.229 30.3082 330.842 30.5642 331.578 30.5642ZM348.629 23.0442C349.323 23.0442 349.941 23.1882 350.485 23.4762C351.04 23.7642 351.472 24.1908 351.781 24.7562C352.101 25.3215 352.261 26.0042 352.261 26.8042V32.0042H350.453V27.0762C350.453 26.2868 350.256 25.6842 349.861 25.2682C349.467 24.8415 348.928 24.6282 348.245 24.6282C347.563 24.6282 347.019 24.8415 346.613 25.2682C346.219 25.6842 346.021 26.2868 346.021 27.0762V32.0042H344.213V27.0762C344.213 26.2868 344.016 25.6842 343.621 25.2682C343.227 24.8415 342.688 24.6282 342.005 24.6282C341.323 24.6282 340.779 24.8415 340.373 25.2682C339.979 25.6842 339.781 26.2868 339.781 27.0762V32.0042H337.957V23.1882H339.781V24.1962C340.08 23.8335 340.459 23.5508 340.917 23.3482C341.376 23.1455 341.867 23.0442 342.389 23.0442C343.093 23.0442 343.723 23.1935 344.277 23.4922C344.832 23.7908 345.259 24.2228 345.557 24.7882C345.824 24.2548 346.24 23.8335 346.805 23.5242C347.371 23.2042 347.979 23.0442 348.629 23.0442ZM358.406 32.1482C357.574 32.1482 356.822 31.9615 356.15 31.5882C355.478 31.2042 354.95 30.6708 354.566 29.9882C354.182 29.2948 353.99 28.4948 353.99 27.5882C353.99 26.6922 354.188 25.8975 354.582 25.2042C354.977 24.5108 355.516 23.9775 356.198 23.6042C356.881 23.2308 357.644 23.0442 358.486 23.0442C359.329 23.0442 360.092 23.2308 360.774 23.6042C361.457 23.9775 361.996 24.5108 362.39 25.2042C362.785 25.8975 362.982 26.6922 362.982 27.5882C362.982 28.4842 362.78 29.2788 362.374 29.9722C361.969 30.6655 361.414 31.2042 360.71 31.5882C360.017 31.9615 359.249 32.1482 358.406 32.1482ZM358.406 30.5642C358.876 30.5642 359.313 30.4522 359.718 30.2282C360.134 30.0042 360.47 29.6682 360.726 29.2202C360.982 28.7722 361.11 28.2282 361.11 27.5882C361.11 26.9482 360.988 26.4095 360.742 25.9722C360.497 25.5242 360.172 25.1882 359.766 24.9642C359.361 24.7402 358.924 24.6282 358.454 24.6282C357.985 24.6282 357.548 24.7402 357.142 24.9642C356.748 25.1882 356.433 25.5242 356.198 25.9722C355.964 26.4095 355.846 26.9482 355.846 27.5882C355.846 28.5375 356.086 29.2735 356.566 29.7962C357.057 30.3082 357.67 30.5642 358.406 30.5642ZM366.609 24.4682C366.876 24.0202 367.228 23.6735 367.665 23.4282C368.113 23.1722 368.641 23.0442 369.249 23.0442V24.9322H368.785C368.071 24.9322 367.527 25.1135 367.153 25.4762C366.791 25.8388 366.609 26.4682 366.609 27.3642V32.0042H364.785V23.1882H366.609V24.4682ZM372.75 24.4682C373.017 24.0202 373.369 23.6735 373.806 23.4282C374.254 23.1722 374.782 23.0442 375.39 23.0442V24.9322H374.926C374.211 24.9322 373.667 25.1135 373.294 25.4762C372.931 25.8388 372.75 26.4682 372.75 27.3642V32.0042H370.926V23.1882H372.75V24.4682ZM380.891 32.1482C380.059 32.1482 379.307 31.9615 378.635 31.5882C377.963 31.2042 377.435 30.6708 377.051 29.9882C376.667 29.2948 376.475 28.4948 376.475 27.5882C376.475 26.6922 376.672 25.8975 377.067 25.2042C377.461 24.5108 378 23.9775 378.683 23.6042C379.365 23.2308 380.128 23.0442 380.971 23.0442C381.813 23.0442 382.576 23.2308 383.259 23.6042C383.941 23.9775 384.48 24.5108 384.875 25.2042C385.269 25.8975 385.467 26.6922 385.467 27.5882C385.467 28.4842 385.264 29.2788 384.859 29.9722C384.453 30.6655 383.899 31.2042 383.195 31.5882C382.501 31.9615 381.733 32.1482 380.891 32.1482ZM380.891 30.5642C381.36 30.5642 381.797 30.4522 382.203 30.2282C382.619 30.0042 382.955 29.6682 383.211 29.2202C383.467 28.7722 383.595 28.2282 383.595 27.5882C383.595 26.9482 383.472 26.4095 383.227 25.9722C382.981 25.5242 382.656 25.1882 382.251 24.9642C381.845 24.7402 381.408 24.6282 380.939 24.6282C380.469 24.6282 380.032 24.7402 379.627 24.9642C379.232 25.1882 378.917 25.5242 378.683 25.9722C378.448 26.4095 378.331 26.9482 378.331 27.5882C378.331 28.5375 378.571 29.2735 379.051 29.7962C379.541 30.3082 380.155 30.5642 380.891 30.5642ZM399.11 23.1882L396.374 32.0042H394.454L392.678 25.4922L390.902 32.0042H388.982L386.23 23.1882H388.086L389.926 30.2762L391.798 23.1882H393.702L395.494 30.2442L397.318 23.1882H399.11ZM403.465 20.7242C404.553 20.7242 405.422 21.0228 406.073 21.6202C406.734 22.2175 407.065 23.0335 407.065 24.0682C407.065 25.1455 406.723 25.9562 406.041 26.5002C405.358 27.0442 404.451 27.3162 403.321 27.3162L403.257 28.5802H401.673L401.593 26.0682H402.121C403.155 26.0682 403.945 25.9295 404.489 25.6522C405.043 25.3748 405.321 24.8468 405.321 24.0682C405.321 23.5028 405.155 23.0602 404.825 22.7402C404.505 22.4202 404.057 22.2602 403.481 22.2602C402.905 22.2602 402.451 22.4148 402.121 22.7242C401.79 23.0335 401.625 23.4655 401.625 24.0202H399.913C399.913 23.3802 400.057 22.8095 400.345 22.3082C400.633 21.8068 401.043 21.4175 401.577 21.1402C402.121 20.8628 402.75 20.7242 403.465 20.7242ZM402.441 32.1162C402.11 32.1162 401.833 32.0042 401.609 31.7802C401.385 31.5562 401.273 31.2788 401.273 30.9482C401.273 30.6175 401.385 30.3402 401.609 30.1162C401.833 29.8922 402.11 29.7802 402.441 29.7802C402.761 29.7802 403.033 29.8922 403.257 30.1162C403.481 30.3402 403.593 30.6175 403.593 30.9482C403.593 31.2788 403.481 31.5562 403.257 31.7802C403.033 32.0042 402.761 32.1162 402.441 32.1162Z" fill="black"/>
<path d="M13.1589 62.9403V64.0563H10.9388V71.2803H9.57085V64.0563H7.33885V62.9403H13.1589ZM17.4123 71.3883C16.7883 71.3883 16.2243 71.2483 15.7203 70.9683C15.2163 70.6803 14.8203 70.2803 14.5323 69.7683C14.2443 69.2483 14.1003 68.6483 14.1003 67.9683C14.1003 67.2963 14.2483 66.7003 14.5443 66.1803C14.8403 65.6603 15.2443 65.2603 15.7563 64.9803C16.2683 64.7003 16.8403 64.5603 17.4723 64.5603C18.1043 64.5603 18.6763 64.7003 19.1883 64.9803C19.7003 65.2603 20.1043 65.6603 20.4003 66.1803C20.6963 66.7003 20.8443 67.2963 20.8443 67.9683C20.8443 68.6403 20.6923 69.2363 20.3883 69.7563C20.0843 70.2763 19.6683 70.6803 19.1403 70.9683C18.6203 71.2483 18.0443 71.3883 17.4123 71.3883ZM17.4123 70.2003C17.7643 70.2003 18.0923 70.1163 18.3963 69.9483C18.7083 69.7803 18.9603 69.5283 19.1523 69.1923C19.3443 68.8563 19.4403 68.4483 19.4403 67.9683C19.4403 67.4883 19.3483 67.0843 19.1643 66.7563C18.9803 66.4203 18.7363 66.1683 18.4323 66.0003C18.1283 65.8323 17.8003 65.7483 17.4483 65.7483C17.0963 65.7483 16.7683 65.8323 16.4643 66.0003C16.1683 66.1683 15.9323 66.4203 15.7563 66.7563C15.5803 67.0843 15.4923 67.4883 15.4923 67.9683C15.4923 68.6803 15.6723 69.2323 16.0323 69.6243C16.4003 70.0083 16.8603 70.2003 17.4123 70.2003ZM21.7406 67.9443C21.7406 67.2803 21.8766 66.6923 22.1486 66.1803C22.4286 65.6683 22.8046 65.2723 23.2766 64.9923C23.7566 64.7043 24.2886 64.5603 24.8726 64.5603C25.3046 64.5603 25.7286 64.6563 26.1446 64.8483C26.5686 65.0323 26.9046 65.2803 27.1526 65.5923V62.4003H28.5326V71.2803H27.1526V70.2843C26.9286 70.6043 26.6166 70.8683 26.2166 71.0763C25.8246 71.2843 25.3726 71.3883 24.8606 71.3883C24.2846 71.3883 23.7566 71.2443 23.2766 70.9563C22.8046 70.6603 22.4286 70.2523 22.1486 69.7323C21.8766 69.2043 21.7406 68.6083 21.7406 67.9443ZM27.1526 67.9683C27.1526 67.5123 27.0566 67.1163 26.8646 66.7803C26.6806 66.4443 26.4366 66.1883 26.1326 66.0123C25.8286 65.8363 25.5006 65.7483 25.1486 65.7483C24.7966 65.7483 24.4686 65.8363 24.1646 66.0123C23.8606 66.1803 23.6126 66.4323 23.4206 66.7683C23.2366 67.0963 23.1446 67.4883 23.1446 67.9443C23.1446 68.4003 23.2366 68.8003 23.4206 69.1443C23.6126 69.4883 23.8606 69.7523 24.1646 69.9363C24.4766 70.1123 24.8046 70.2003 25.1486 70.2003C25.5006 70.2003 25.8286 70.1123 26.1326 69.9363C26.4366 69.7603 26.6806 69.5043 26.8646 69.1683C27.0566 68.8243 27.1526 68.4243 27.1526 67.9683ZM29.8734 67.9443C29.8734 67.2803 30.0094 66.6923 30.2814 66.1803C30.5614 65.6683 30.9374 65.2723 31.4094 64.9923C31.8894 64.7043 32.4174 64.5603 32.9934 64.5603C33.5134 64.5603 33.9654 64.6643 34.3494 64.8723C34.7414 65.0723 35.0534 65.3243 35.2854 65.6283V64.6683H36.6654V71.2803H35.2854V70.2963C35.0534 70.6083 34.7374 70.8683 34.3374 71.0763C33.9374 71.2843 33.4814 71.3883 32.9694 71.3883C32.4014 71.3883 31.8814 71.2443 31.4094 70.9563C30.9374 70.6603 30.5614 70.2523 30.2814 69.7323C30.0094 69.2043 29.8734 68.6083 29.8734 67.9443ZM35.2854 67.9683C35.2854 67.5123 35.1894 67.1163 34.9974 66.7803C34.8134 66.4443 34.5694 66.1883 34.2654 66.0123C33.9614 65.8363 33.6334 65.7483 33.2814 65.7483C32.9294 65.7483 32.6014 65.8363 32.2974 66.0123C31.9934 66.1803 31.7454 66.4323 31.5534 66.7683C31.3694 67.0963 31.2774 67.4883 31.2774 67.9443C31.2774 68.4003 31.3694 68.8003 31.5534 69.1443C31.7454 69.4883 31.9934 69.7523 32.2974 69.9363C32.6094 70.1123 32.9374 70.2003 33.2814 70.2003C33.6334 70.2003 33.9614 70.1123 34.2654 69.9363C34.5694 69.7603 34.8134 69.5043 34.9974 69.1683C35.1894 68.8243 35.2854 68.4243 35.2854 67.9683ZM44.4143 64.6683L40.3583 74.3883H38.9423L40.2863 71.1723L37.6823 64.6683H39.2063L41.0663 69.7083L42.9983 64.6683H44.4143ZM46.9466 69.6363L45.4946 72.9483H44.6066L45.4586 69.6363H46.9466ZM51.8351 69.4203C52.6031 68.7563 53.2071 68.2123 53.6471 67.7883C54.0951 67.3563 54.4671 66.9083 54.7631 66.4443C55.0591 65.9803 55.2071 65.5163 55.2071 65.0523C55.2071 64.5723 55.0911 64.1963 54.8591 63.9243C54.6351 63.6523 54.2791 63.5163 53.7911 63.5163C53.3191 63.5163 52.9511 63.6683 52.6871 63.9723C52.4311 64.2683 52.2951 64.6683 52.2791 65.1723H50.9591C50.9831 64.2603 51.2551 63.5643 51.7751 63.0843C52.3031 62.5963 52.9711 62.3523 53.7791 62.3523C54.6511 62.3523 55.3311 62.5923 55.8191 63.0723C56.3151 63.5523 56.5631 64.1923 56.5631 64.9923C56.5631 65.5683 56.4151 66.1243 56.1191 66.6603C55.8311 67.1883 55.4831 67.6643 55.0751 68.0883C54.6751 68.5043 54.1631 68.9883 53.5391 69.5403L52.9991 70.0203H56.8031V71.1603H50.9711V70.1643L51.8351 69.4203ZM58.7369 71.3643C58.4889 71.3643 58.2809 71.2803 58.1129 71.1123C57.9449 70.9443 57.8609 70.7363 57.8609 70.4883C57.8609 70.2403 57.9449 70.0323 58.1129 69.8643C58.2809 69.6963 58.4889 69.6123 58.7369 69.6123C58.9769 69.6123 59.1809 69.6963 59.3489 69.8643C59.5169 70.0323 59.6009 70.2403 59.6009 70.4883C59.6009 70.7363 59.5169 70.9443 59.3489 71.1123C59.1809 71.2803 58.9769 71.3643 58.7369 71.3643ZM58.7369 66.3243C58.4889 66.3243 58.2809 66.2403 58.1129 66.0723C57.9449 65.9043 57.8609 65.6963 57.8609 65.4483C57.8609 65.2003 57.9449 64.9923 58.1129 64.8243C58.2809 64.6563 58.4889 64.5723 58.7369 64.5723C58.9769 64.5723 59.1809 64.6563 59.3489 64.8243C59.5169 64.9923 59.6009 65.2003 59.6009 65.4483C59.6009 65.6963 59.5169 65.9043 59.3489 66.0723C59.1809 66.2403 58.9769 66.3243 58.7369 66.3243ZM60.7663 63.7803V62.5323H63.2623V71.2803H61.8823V63.7803H60.7663ZM65.1176 64.6923C65.1656 63.9483 65.4496 63.3683 65.9696 62.9523C66.4976 62.5363 67.1696 62.3283 67.9856 62.3283C68.5456 62.3283 69.0296 62.4283 69.4376 62.6283C69.8456 62.8283 70.1536 63.1003 70.3616 63.4443C70.5696 63.7883 70.6736 64.1763 70.6736 64.6083C70.6736 65.1043 70.5416 65.5283 70.2776 65.8803C70.0136 66.2323 69.6976 66.4683 69.3296 66.5883V66.6363C69.8016 66.7803 70.1696 67.0443 70.4336 67.4283C70.6976 67.8043 70.8296 68.2883 70.8296 68.8803C70.8296 69.3523 70.7216 69.7723 70.5056 70.1403C70.2896 70.5083 69.9696 70.8003 69.5456 71.0163C69.1216 71.2243 68.6136 71.3283 68.0216 71.3283C67.1576 71.3283 66.4456 71.1083 65.8856 70.6683C65.3336 70.2203 65.0376 69.5803 64.9976 68.7483H66.3176C66.3496 69.1723 66.5136 69.5203 66.8096 69.7923C67.1056 70.0563 67.5056 70.1883 68.0096 70.1883C68.4976 70.1883 68.8736 70.0563 69.1376 69.7923C69.4016 69.5203 69.5336 69.1723 69.5336 68.7483C69.5336 68.1883 69.3536 67.7923 68.9936 67.5603C68.6416 67.3203 68.0976 67.2003 67.3616 67.2003H67.0496V66.0723H67.3736C68.0216 66.0643 68.5136 65.9563 68.8496 65.7483C69.1936 65.5403 69.3656 65.2123 69.3656 64.7643C69.3656 64.3803 69.2416 64.0763 68.9936 63.8523C68.7456 63.6203 68.3936 63.5043 67.9376 63.5043C67.4896 63.5043 67.1416 63.6203 66.8936 63.8523C66.6456 64.0763 66.4976 64.3563 66.4496 64.6923H65.1176ZM73.8146 65.6403C74.0466 65.3363 74.3626 65.0803 74.7626 64.8723C75.1626 64.6643 75.6146 64.5603 76.1186 64.5603C76.6946 64.5603 77.2186 64.7043 77.6906 64.9923C78.1706 65.2723 78.5466 65.6683 78.8186 66.1803C79.0906 66.6923 79.2266 67.2803 79.2266 67.9443C79.2266 68.6083 79.0906 69.2043 78.8186 69.7323C78.5466 70.2523 78.1706 70.6603 77.6906 70.9563C77.2186 71.2443 76.6946 71.3883 76.1186 71.3883C75.6146 71.3883 75.1666 71.2883 74.7746 71.0883C74.3826 70.8803 74.0626 70.6243 73.8146 70.3203V74.4243H72.4466V64.6683H73.8146V65.6403ZM77.8346 67.9443C77.8346 67.4883 77.7386 67.0963 77.5466 66.7683C77.3626 66.4323 77.1146 66.1803 76.8026 66.0123C76.4986 65.8363 76.1706 65.7483 75.8186 65.7483C75.4746 65.7483 75.1466 65.8363 74.8346 66.0123C74.5306 66.1883 74.2826 66.4443 74.0906 66.7803C73.9066 67.1163 73.8146 67.5123 73.8146 67.9683C73.8146 68.4243 73.9066 68.8243 74.0906 69.1683C74.2826 69.5043 74.5306 69.7603 74.8346 69.9363C75.1466 70.1123 75.4746 70.2003 75.8186 70.2003C76.1706 70.2003 76.4986 70.1123 76.8026 69.9363C77.1146 69.7523 77.3626 69.4883 77.5466 69.1443C77.7386 68.8003 77.8346 68.4003 77.8346 67.9443ZM88.5834 64.5603C89.1034 64.5603 89.5674 64.6683 89.9754 64.8843C90.3914 65.1003 90.7154 65.4203 90.9474 65.8443C91.1874 66.2683 91.3074 66.7803 91.3074 67.3803V71.2803H89.9514V67.5843C89.9514 66.9923 89.8034 66.5403 89.5074 66.2283C89.2114 65.9083 88.8074 65.7483 88.2954 65.7483C87.7834 65.7483 87.3754 65.9083 87.0714 66.2283C86.7754 66.5403 86.6274 66.9923 86.6274 67.5843V71.2803H85.2714V67.5843C85.2714 66.9923 85.1234 66.5403 84.8274 66.2283C84.5314 65.9083 84.1274 65.7483 83.6154 65.7483C83.1034 65.7483 82.6954 65.9083 82.3914 66.2283C82.0954 66.5403 81.9474 66.9923 81.9474 67.5843V71.2803H80.5794V64.6683H81.9474V65.4243C82.1714 65.1523 82.4554 64.9403 82.7994 64.7883C83.1434 64.6363 83.5114 64.5603 83.9034 64.5603C84.4314 64.5603 84.9034 64.6723 85.3194 64.8963C85.7354 65.1203 86.0554 65.4443 86.2794 65.8683C86.4794 65.4683 86.7914 65.1523 87.2154 64.9203C87.6394 64.6803 88.0954 64.5603 88.5834 64.5603Z" fill="black" fill-opacity="0.25"/>
</svg>
