<svg width="250" height="77" viewBox="0 0 250 77" fill="none" xmlns="http://www.w3.org/2000/svg">
<rect x="14.1208" y="0.78244" width="235.219" height="50.3138" rx="10" fill="#CFCFCF"/>
<path d="M17.3671 32.1159C18.1669 31.0429 19.7745 31.0429 20.5743 32.1159L32.3396 47.901C33.3229 49.2202 32.3814 51.0962 30.736 51.0962H7.20539C5.56005 51.0962 4.61855 49.2202 5.60182 47.901L17.3671 32.1159Z" fill="#CFCFCF"/>
<path d="M54.4878 20.744V31.864H52.6638V27H47.4318V31.864H45.6078V20.744H47.4318V25.512H52.6638V20.744H54.4878ZM60.7131 32.008C59.8811 32.008 59.1291 31.8213 58.4571 31.448C57.7851 31.064 57.2571 30.5307 56.8731 29.848C56.4891 29.1547 56.2971 28.3547 56.2971 27.448C56.2971 26.552 56.4944 25.7573 56.8891 25.064C57.2838 24.3707 57.8224 23.8373 58.5051 23.464C59.1878 23.0907 59.9504 22.904 60.7931 22.904C61.6358 22.904 62.3984 23.0907 63.0811 23.464C63.7638 23.8373 64.3024 24.3707 64.6971 25.064C65.0918 25.7573 65.2891 26.552 65.2891 27.448C65.2891 28.344 65.0864 29.1387 64.6811 29.832C64.2758 30.5253 63.7211 31.064 63.0171 31.448C62.3238 31.8213 61.5558 32.008 60.7131 32.008ZM60.7131 30.424C61.1824 30.424 61.6198 30.312 62.0251 30.088C62.4411 29.864 62.7771 29.528 63.0331 29.08C63.2891 28.632 63.4171 28.088 63.4171 27.448C63.4171 26.808 63.2944 26.2693 63.0491 25.832C62.8038 25.384 62.4784 25.048 62.0731 24.824C61.6678 24.6 61.2304 24.488 60.7611 24.488C60.2918 24.488 59.8544 24.6 59.4491 24.824C59.0544 25.048 58.7398 25.384 58.5051 25.832C58.2704 26.2693 58.1531 26.808 58.1531 27.448C58.1531 28.3973 58.3931 29.1333 58.8731 29.656C59.3638 30.168 59.9771 30.424 60.7131 30.424ZM78.9322 23.048L76.1962 31.864H74.2762L72.5002 25.352L70.7242 31.864H68.8042L66.0522 23.048H67.9082L69.7482 30.136L71.6202 23.048H73.5242L75.3162 30.104L77.1402 23.048H78.9322ZM83.8436 27.416C83.8436 26.5307 84.0249 25.7467 84.3876 25.064C84.7609 24.3813 85.2623 23.8533 85.8916 23.48C86.5316 23.096 87.2356 22.904 88.0036 22.904C88.6969 22.904 89.2996 23.0427 89.8116 23.32C90.3343 23.5867 90.7503 23.9227 91.0596 24.328V23.048H92.8996V31.864H91.0596V30.552C90.7503 30.968 90.3289 31.3147 89.7956 31.592C89.2623 31.8693 88.6543 32.008 87.9716 32.008C87.2143 32.008 86.5209 31.816 85.8916 31.432C85.2623 31.0373 84.7609 30.4933 84.3876 29.8C84.0249 29.096 83.8436 28.3013 83.8436 27.416ZM91.0596 27.448C91.0596 26.84 90.9316 26.312 90.6756 25.864C90.4303 25.416 90.1049 25.0747 89.6996 24.84C89.2943 24.6053 88.8569 24.488 88.3876 24.488C87.9183 24.488 87.4809 24.6053 87.0756 24.84C86.6703 25.064 86.3396 25.4 86.0836 25.848C85.8383 26.2853 85.7156 26.808 85.7156 27.416C85.7156 28.024 85.8383 28.5573 86.0836 29.016C86.3396 29.4747 86.6703 29.8267 87.0756 30.072C87.4916 30.3067 87.9289 30.424 88.3876 30.424C88.8569 30.424 89.2943 30.3067 89.6996 30.072C90.1049 29.8373 90.4303 29.496 90.6756 29.048C90.9316 28.5893 91.0596 28.056 91.0596 27.448ZM97.1193 24.328C97.386 23.88 97.738 23.5333 98.1753 23.288C98.6233 23.032 99.1513 22.904 99.7593 22.904V24.792H99.2953C98.5807 24.792 98.0367 24.9733 97.6633 25.336C97.3007 25.6987 97.1193 26.328 97.1193 27.224V31.864H95.2953V23.048H97.1193V24.328ZM109.516 27.24C109.516 27.5707 109.495 27.8693 109.452 28.136H102.716C102.769 28.84 103.031 29.4053 103.5 29.832C103.969 30.2587 104.545 30.472 105.228 30.472C106.209 30.472 106.903 30.0613 107.308 29.24H109.276C109.009 30.0507 108.524 30.7173 107.82 31.24C107.127 31.752 106.263 32.008 105.228 32.008C104.385 32.008 103.628 31.8213 102.956 31.448C102.295 31.064 101.772 30.5307 101.388 29.848C101.015 29.1547 100.828 28.3547 100.828 27.448C100.828 26.5413 101.009 25.7467 101.372 25.064C101.745 24.3707 102.263 23.8373 102.924 23.464C103.596 23.0907 104.364 22.904 105.228 22.904C106.06 22.904 106.801 23.0853 107.452 23.448C108.103 23.8107 108.609 24.3227 108.972 24.984C109.335 25.6347 109.516 26.3867 109.516 27.24ZM107.612 26.664C107.601 25.992 107.361 25.4533 106.892 25.048C106.423 24.6427 105.841 24.44 105.148 24.44C104.519 24.44 103.98 24.6427 103.532 25.048C103.084 25.4427 102.817 25.9813 102.732 26.664H107.612ZM123.403 23.048L117.995 36.008H116.107L117.899 31.72L114.427 23.048H116.459L118.939 29.768L121.515 23.048H123.403ZM128.604 32.008C127.772 32.008 127.02 31.8213 126.348 31.448C125.676 31.064 125.148 30.5307 124.764 29.848C124.38 29.1547 124.188 28.3547 124.188 27.448C124.188 26.552 124.385 25.7573 124.78 25.064C125.174 24.3707 125.713 23.8373 126.396 23.464C127.078 23.0907 127.841 22.904 128.684 22.904C129.526 22.904 130.289 23.0907 130.972 23.464C131.654 23.8373 132.193 24.3707 132.588 25.064C132.982 25.7573 133.18 26.552 133.18 27.448C133.18 28.344 132.977 29.1387 132.572 29.832C132.166 30.5253 131.612 31.064 130.908 31.448C130.214 31.8213 129.446 32.008 128.604 32.008ZM128.604 30.424C129.073 30.424 129.51 30.312 129.916 30.088C130.332 29.864 130.668 29.528 130.924 29.08C131.18 28.632 131.308 28.088 131.308 27.448C131.308 26.808 131.185 26.2693 130.94 25.832C130.694 25.384 130.369 25.048 129.964 24.824C129.558 24.6 129.121 24.488 128.652 24.488C128.182 24.488 127.745 24.6 127.34 24.824C126.945 25.048 126.63 25.384 126.396 25.832C126.161 26.2693 126.044 26.808 126.044 27.448C126.044 28.3973 126.284 29.1333 126.764 29.656C127.254 30.168 127.868 30.424 128.604 30.424ZM142.967 23.048V31.864H141.143V30.824C140.855 31.1867 140.476 31.4747 140.007 31.688C139.548 31.8907 139.058 31.992 138.535 31.992C137.842 31.992 137.218 31.848 136.663 31.56C136.119 31.272 135.687 30.8453 135.367 30.28C135.058 29.7147 134.903 29.032 134.903 28.232V23.048H136.711V27.96C136.711 28.7493 136.908 29.3573 137.303 29.784C137.698 30.2 138.236 30.408 138.919 30.408C139.602 30.408 140.14 30.2 140.535 29.784C140.94 29.3573 141.143 28.7493 141.143 27.96V23.048H142.967ZM148.922 27.416C148.922 26.5307 149.103 25.7467 149.466 25.064C149.839 24.3813 150.34 23.8533 150.97 23.48C151.61 23.096 152.319 22.904 153.098 22.904C153.674 22.904 154.239 23.032 154.794 23.288C155.359 23.5333 155.807 23.864 156.138 24.28V20.024H157.978V31.864H156.138V30.536C155.839 30.9627 155.423 31.3147 154.89 31.592C154.367 31.8693 153.764 32.008 153.082 32.008C152.314 32.008 151.61 31.816 150.97 31.432C150.34 31.0373 149.839 30.4933 149.466 29.8C149.103 29.096 148.922 28.3013 148.922 27.416ZM156.138 27.448C156.138 26.84 156.01 26.312 155.754 25.864C155.508 25.416 155.183 25.0747 154.778 24.84C154.372 24.6053 153.935 24.488 153.466 24.488C152.996 24.488 152.559 24.6053 152.154 24.84C151.748 25.064 151.418 25.4 151.162 25.848C150.916 26.2853 150.794 26.808 150.794 27.416C150.794 28.024 150.916 28.5573 151.162 29.016C151.418 29.4747 151.748 29.8267 152.154 30.072C152.57 30.3067 153.007 30.424 153.466 30.424C153.935 30.424 154.372 30.3067 154.778 30.072C155.183 29.8373 155.508 29.496 155.754 29.048C156.01 28.5893 156.138 28.056 156.138 27.448ZM164.197 32.008C163.365 32.008 162.613 31.8213 161.941 31.448C161.269 31.064 160.741 30.5307 160.357 29.848C159.973 29.1547 159.781 28.3547 159.781 27.448C159.781 26.552 159.979 25.7573 160.373 25.064C160.768 24.3707 161.307 23.8373 161.989 23.464C162.672 23.0907 163.435 22.904 164.277 22.904C165.12 22.904 165.883 23.0907 166.565 23.464C167.248 23.8373 167.787 24.3707 168.181 25.064C168.576 25.7573 168.773 26.552 168.773 27.448C168.773 28.344 168.571 29.1387 168.165 29.832C167.76 30.5253 167.205 31.064 166.501 31.448C165.808 31.8213 165.04 32.008 164.197 32.008ZM164.197 30.424C164.667 30.424 165.104 30.312 165.509 30.088C165.925 29.864 166.261 29.528 166.517 29.08C166.773 28.632 166.901 28.088 166.901 27.448C166.901 26.808 166.779 26.2693 166.533 25.832C166.288 25.384 165.963 25.048 165.557 24.824C165.152 24.6 164.715 24.488 164.245 24.488C163.776 24.488 163.339 24.6 162.933 24.824C162.539 25.048 162.224 25.384 161.989 25.832C161.755 26.2693 161.637 26.808 161.637 27.448C161.637 28.3973 161.877 29.1333 162.357 29.656C162.848 30.168 163.461 30.424 164.197 30.424ZM171.505 21.88C171.174 21.88 170.897 21.768 170.673 21.544C170.449 21.32 170.337 21.0427 170.337 20.712C170.337 20.3813 170.449 20.104 170.673 19.88C170.897 19.656 171.174 19.544 171.505 19.544C171.825 19.544 172.097 19.656 172.321 19.88C172.545 20.104 172.657 20.3813 172.657 20.712C172.657 21.0427 172.545 21.32 172.321 21.544C172.097 21.768 171.825 21.88 171.505 21.88ZM172.401 23.048V31.864H170.577V23.048H172.401ZM179.243 22.904C179.937 22.904 180.555 23.048 181.099 23.336C181.654 23.624 182.086 24.0507 182.395 24.616C182.705 25.1813 182.859 25.864 182.859 26.664V31.864H181.051V26.936C181.051 26.1467 180.854 25.544 180.459 25.128C180.065 24.7013 179.526 24.488 178.843 24.488C178.161 24.488 177.617 24.7013 177.211 25.128C176.817 25.544 176.619 26.1467 176.619 26.936V31.864H174.795V23.048H176.619V24.056C176.918 23.6933 177.297 23.4107 177.755 23.208C178.225 23.0053 178.721 22.904 179.243 22.904ZM188.738 22.904C189.421 22.904 190.023 23.0427 190.546 23.32C191.079 23.5867 191.495 23.9227 191.794 24.328V23.048H193.634V32.008C193.634 32.8187 193.463 33.5387 193.122 34.168C192.781 34.808 192.285 35.3093 191.634 35.672C190.994 36.0347 190.226 36.216 189.33 36.216C188.135 36.216 187.143 35.9333 186.354 35.368C185.565 34.8133 185.117 34.056 185.01 33.096H186.818C186.957 33.5547 187.25 33.9227 187.698 34.2C188.157 34.488 188.701 34.632 189.33 34.632C190.066 34.632 190.658 34.408 191.106 33.96C191.565 33.512 191.794 32.8613 191.794 32.008V30.536C191.485 30.952 191.063 31.304 190.53 31.592C190.007 31.8693 189.41 32.008 188.738 32.008C187.97 32.008 187.266 31.816 186.626 31.432C185.997 31.0373 185.495 30.4933 185.122 29.8C184.759 29.096 184.578 28.3013 184.578 27.416C184.578 26.5307 184.759 25.7467 185.122 25.064C185.495 24.3813 185.997 23.8533 186.626 23.48C187.266 23.096 187.97 22.904 188.738 22.904ZM191.794 27.448C191.794 26.84 191.666 26.312 191.41 25.864C191.165 25.416 190.839 25.0747 190.434 24.84C190.029 24.6053 189.591 24.488 189.122 24.488C188.653 24.488 188.215 24.6053 187.81 24.84C187.405 25.064 187.074 25.4 186.818 25.848C186.573 26.2853 186.45 26.808 186.45 27.416C186.45 28.024 186.573 28.5573 186.818 29.016C187.074 29.4747 187.405 29.8267 187.81 30.072C188.226 30.3067 188.663 30.424 189.122 30.424C189.591 30.424 190.029 30.3067 190.434 30.072C190.839 29.8373 191.165 29.496 191.41 29.048C191.666 28.5893 191.794 28.056 191.794 27.448ZM199.022 20.584C200.11 20.584 200.979 20.8827 201.63 21.48C202.291 22.0773 202.622 22.8933 202.622 23.928C202.622 25.0053 202.28 25.816 201.598 26.36C200.915 26.904 200.008 27.176 198.878 27.176L198.814 28.44H197.23L197.15 25.928H197.678C198.712 25.928 199.502 25.7893 200.046 25.512C200.6 25.2347 200.878 24.7067 200.878 23.928C200.878 23.3627 200.712 22.92 200.382 22.6C200.062 22.28 199.614 22.12 199.038 22.12C198.462 22.12 198.008 22.2747 197.678 22.584C197.347 22.8933 197.182 23.3253 197.182 23.88H195.47C195.47 23.24 195.614 22.6693 195.902 22.168C196.19 21.6667 196.6 21.2773 197.134 21C197.678 20.7227 198.307 20.584 199.022 20.584ZM197.998 31.976C197.667 31.976 197.39 31.864 197.166 31.64C196.942 31.416 196.83 31.1387 196.83 30.808C196.83 30.4773 196.942 30.2 197.166 29.976C197.39 29.752 197.667 29.64 197.998 29.64C198.318 29.64 198.59 29.752 198.814 29.976C199.038 30.2 199.15 30.4773 199.15 30.808C199.15 31.1387 199.038 31.416 198.814 31.64C198.59 31.864 198.318 31.976 197.998 31.976Z" fill="black"/>
<path d="M13.1589 62.8002V63.9162H10.9388V71.1402H9.57085V63.9162H7.33885V62.8002H13.1589ZM17.4123 71.2482C16.7883 71.2482 16.2243 71.1082 15.7203 70.8282C15.2163 70.5402 14.8203 70.1402 14.5323 69.6282C14.2443 69.1082 14.1003 68.5082 14.1003 67.8282C14.1003 67.1562 14.2483 66.5602 14.5443 66.0402C14.8403 65.5202 15.2443 65.1202 15.7563 64.8402C16.2683 64.5602 16.8403 64.4202 17.4723 64.4202C18.1043 64.4202 18.6763 64.5602 19.1883 64.8402C19.7003 65.1202 20.1043 65.5202 20.4003 66.0402C20.6963 66.5602 20.8443 67.1562 20.8443 67.8282C20.8443 68.5002 20.6923 69.0962 20.3883 69.6162C20.0843 70.1362 19.6683 70.5402 19.1403 70.8282C18.6203 71.1082 18.0443 71.2482 17.4123 71.2482ZM17.4123 70.0602C17.7643 70.0602 18.0923 69.9762 18.3963 69.8082C18.7083 69.6402 18.9603 69.3882 19.1523 69.0522C19.3443 68.7162 19.4403 68.3082 19.4403 67.8282C19.4403 67.3482 19.3483 66.9442 19.1643 66.6162C18.9803 66.2802 18.7363 66.0282 18.4323 65.8602C18.1283 65.6922 17.8003 65.6082 17.4483 65.6082C17.0963 65.6082 16.7683 65.6922 16.4643 65.8602C16.1683 66.0282 15.9323 66.2802 15.7563 66.6162C15.5803 66.9442 15.4923 67.3482 15.4923 67.8282C15.4923 68.5402 15.6723 69.0922 16.0323 69.4842C16.4003 69.8682 16.8603 70.0602 17.4123 70.0602ZM21.7406 67.8042C21.7406 67.1402 21.8766 66.5522 22.1486 66.0402C22.4286 65.5282 22.8046 65.1322 23.2766 64.8522C23.7566 64.5642 24.2886 64.4202 24.8726 64.4202C25.3046 64.4202 25.7286 64.5162 26.1446 64.7082C26.5686 64.8922 26.9046 65.1402 27.1526 65.4522V62.2602H28.5326V71.1402H27.1526V70.1442C26.9286 70.4642 26.6166 70.7282 26.2166 70.9362C25.8246 71.1442 25.3726 71.2482 24.8606 71.2482C24.2846 71.2482 23.7566 71.1042 23.2766 70.8162C22.8046 70.5202 22.4286 70.1122 22.1486 69.5922C21.8766 69.0642 21.7406 68.4682 21.7406 67.8042ZM27.1526 67.8282C27.1526 67.3722 27.0566 66.9762 26.8646 66.6402C26.6806 66.3042 26.4366 66.0482 26.1326 65.8722C25.8286 65.6962 25.5006 65.6082 25.1486 65.6082C24.7966 65.6082 24.4686 65.6962 24.1646 65.8722C23.8606 66.0402 23.6126 66.2922 23.4206 66.6282C23.2366 66.9562 23.1446 67.3482 23.1446 67.8042C23.1446 68.2602 23.2366 68.6602 23.4206 69.0042C23.6126 69.3482 23.8606 69.6122 24.1646 69.7962C24.4766 69.9722 24.8046 70.0602 25.1486 70.0602C25.5006 70.0602 25.8286 69.9722 26.1326 69.7962C26.4366 69.6202 26.6806 69.3642 26.8646 69.0282C27.0566 68.6842 27.1526 68.2842 27.1526 67.8282ZM29.8734 67.8042C29.8734 67.1402 30.0094 66.5522 30.2814 66.0402C30.5614 65.5282 30.9374 65.1322 31.4094 64.8522C31.8894 64.5642 32.4174 64.4202 32.9934 64.4202C33.5134 64.4202 33.9654 64.5242 34.3494 64.7322C34.7414 64.9322 35.0534 65.1842 35.2854 65.4882V64.5282H36.6654V71.1402H35.2854V70.1562C35.0534 70.4682 34.7374 70.7282 34.3374 70.9362C33.9374 71.1442 33.4814 71.2482 32.9694 71.2482C32.4014 71.2482 31.8814 71.1042 31.4094 70.8162C30.9374 70.5202 30.5614 70.1122 30.2814 69.5922C30.0094 69.0642 29.8734 68.4682 29.8734 67.8042ZM35.2854 67.8282C35.2854 67.3722 35.1894 66.9762 34.9974 66.6402C34.8134 66.3042 34.5694 66.0482 34.2654 65.8722C33.9614 65.6962 33.6334 65.6082 33.2814 65.6082C32.9294 65.6082 32.6014 65.6962 32.2974 65.8722C31.9934 66.0402 31.7454 66.2922 31.5534 66.6282C31.3694 66.9562 31.2774 67.3482 31.2774 67.8042C31.2774 68.2602 31.3694 68.6602 31.5534 69.0042C31.7454 69.3482 31.9934 69.6122 32.2974 69.7962C32.6094 69.9722 32.9374 70.0602 33.2814 70.0602C33.6334 70.0602 33.9614 69.9722 34.2654 69.7962C34.5694 69.6202 34.8134 69.3642 34.9974 69.0282C35.1894 68.6842 35.2854 68.2842 35.2854 67.8282ZM44.4143 64.5282L40.3583 74.2482H38.9423L40.2863 71.0322L37.6823 64.5282H39.2063L41.0663 69.5682L42.9983 64.5282H44.4143ZM46.9466 69.4962L45.4946 72.8082H44.6066L45.4586 69.4962H46.9466ZM51.8351 69.2802C52.6031 68.6162 53.2071 68.0722 53.6471 67.6482C54.0951 67.2162 54.4671 66.7682 54.7631 66.3042C55.0591 65.8402 55.2071 65.3762 55.2071 64.9122C55.2071 64.4322 55.0911 64.0562 54.8591 63.7842C54.6351 63.5122 54.2791 63.3762 53.7911 63.3762C53.3191 63.3762 52.9511 63.5282 52.6871 63.8322C52.4311 64.1282 52.2951 64.5282 52.2791 65.0322H50.9591C50.9831 64.1202 51.2551 63.4242 51.7751 62.9442C52.3031 62.4562 52.9711 62.2122 53.7791 62.2122C54.6511 62.2122 55.3311 62.4522 55.8191 62.9322C56.3151 63.4122 56.5631 64.0522 56.5631 64.8522C56.5631 65.4282 56.4151 65.9842 56.1191 66.5202C55.8311 67.0482 55.4831 67.5242 55.0751 67.9482C54.6751 68.3642 54.1631 68.8482 53.5391 69.4002L52.9991 69.8802H56.8031V71.0202H50.9711V70.0242L51.8351 69.2802ZM58.7369 71.2242C58.4889 71.2242 58.2809 71.1402 58.1129 70.9722C57.9449 70.8042 57.8609 70.5962 57.8609 70.3482C57.8609 70.1002 57.9449 69.8922 58.1129 69.7242C58.2809 69.5562 58.4889 69.4722 58.7369 69.4722C58.9769 69.4722 59.1809 69.5562 59.3489 69.7242C59.5169 69.8922 59.6009 70.1002 59.6009 70.3482C59.6009 70.5962 59.5169 70.8042 59.3489 70.9722C59.1809 71.1402 58.9769 71.2242 58.7369 71.2242ZM58.7369 66.1842C58.4889 66.1842 58.2809 66.1002 58.1129 65.9322C57.9449 65.7642 57.8609 65.5562 57.8609 65.3082C57.8609 65.0602 57.9449 64.8522 58.1129 64.6842C58.2809 64.5162 58.4889 64.4322 58.7369 64.4322C58.9769 64.4322 59.1809 64.5162 59.3489 64.6842C59.5169 64.8522 59.6009 65.0602 59.6009 65.3082C59.6009 65.5562 59.5169 65.7642 59.3489 65.9322C59.1809 66.1002 58.9769 66.1842 58.7369 66.1842ZM60.9463 66.6522C60.9463 65.2682 61.1783 64.1882 61.6423 63.4122C62.1143 62.6282 62.9223 62.2362 64.0663 62.2362C65.2103 62.2362 66.0143 62.6282 66.4783 63.4122C66.9503 64.1882 67.1863 65.2682 67.1863 66.6522C67.1863 68.0522 66.9503 69.1482 66.4783 69.9402C66.0143 70.7242 65.2103 71.1162 64.0663 71.1162C62.9223 71.1162 62.1143 70.7242 61.6423 69.9402C61.1783 69.1482 60.9463 68.0522 60.9463 66.6522ZM65.8423 66.6522C65.8423 66.0042 65.7983 65.4562 65.7103 65.0082C65.6303 64.5602 65.4623 64.1962 65.2063 63.9162C64.9503 63.6282 64.5703 63.4842 64.0663 63.4842C63.5623 63.4842 63.1823 63.6282 62.9263 63.9162C62.6703 64.1962 62.4983 64.5602 62.4103 65.0082C62.3303 65.4562 62.2903 66.0042 62.2903 66.6522C62.2903 67.3242 62.3303 67.8882 62.4103 68.3442C62.4903 68.8002 62.6583 69.1682 62.9143 69.4482C63.1783 69.7282 63.5623 69.8682 64.0663 69.8682C64.5703 69.8682 64.9503 69.7282 65.2063 69.4482C65.4703 69.1682 65.6423 68.8002 65.7223 68.3442C65.8023 67.8882 65.8423 67.3242 65.8423 66.6522ZM69.3898 69.2802C70.1578 68.6162 70.7618 68.0722 71.2018 67.6482C71.6498 67.2162 72.0218 66.7682 72.3178 66.3042C72.6138 65.8402 72.7618 65.3762 72.7618 64.9122C72.7618 64.4322 72.6458 64.0562 72.4138 63.7842C72.1898 63.5122 71.8338 63.3762 71.3458 63.3762C70.8738 63.3762 70.5058 63.5282 70.2418 63.8322C69.9858 64.1282 69.8498 64.5282 69.8338 65.0322H68.5138C68.5378 64.1202 68.8098 63.4242 69.3298 62.9442C69.8578 62.4562 70.5258 62.2122 71.3338 62.2122C72.2058 62.2122 72.8858 62.4522 73.3738 62.9322C73.8698 63.4122 74.1178 64.0522 74.1178 64.8522C74.1178 65.4282 73.9698 65.9842 73.6738 66.5202C73.3858 67.0482 73.0378 67.5242 72.6298 67.9482C72.2298 68.3642 71.7178 68.8482 71.0938 69.4002L70.5538 69.8802H74.3578V71.0202H68.5258V70.0242L69.3898 69.2802ZM77.1076 65.5002C77.3396 65.1962 77.6556 64.9402 78.0556 64.7322C78.4556 64.5242 78.9076 64.4202 79.4116 64.4202C79.9876 64.4202 80.5116 64.5642 80.9836 64.8522C81.4636 65.1322 81.8396 65.5282 82.1116 66.0402C82.3836 66.5522 82.5196 67.1402 82.5196 67.8042C82.5196 68.4682 82.3836 69.0642 82.1116 69.5922C81.8396 70.1122 81.4636 70.5202 80.9836 70.8162C80.5116 71.1042 79.9876 71.2482 79.4116 71.2482C78.9076 71.2482 78.4596 71.1482 78.0676 70.9482C77.6756 70.7402 77.3556 70.4842 77.1076 70.1802V74.2842H75.7396V64.5282H77.1076V65.5002ZM81.1276 67.8042C81.1276 67.3482 81.0316 66.9562 80.8396 66.6282C80.6556 66.2922 80.4076 66.0402 80.0956 65.8722C79.7916 65.6962 79.4636 65.6082 79.1116 65.6082C78.7676 65.6082 78.4396 65.6962 78.1276 65.8722C77.8236 66.0482 77.5756 66.3042 77.3836 66.6402C77.1996 66.9762 77.1076 67.3722 77.1076 67.8282C77.1076 68.2842 77.1996 68.6842 77.3836 69.0282C77.5756 69.3642 77.8236 69.6202 78.1276 69.7962C78.4396 69.9722 78.7676 70.0602 79.1116 70.0602C79.4636 70.0602 79.7916 69.9722 80.0956 69.7962C80.4076 69.6122 80.6556 69.3482 80.8396 69.0042C81.0316 68.6602 81.1276 68.2602 81.1276 67.8042ZM91.8764 64.4202C92.3964 64.4202 92.8604 64.5282 93.2684 64.7442C93.6844 64.9602 94.0084 65.2802 94.2404 65.7042C94.4804 66.1282 94.6004 66.6402 94.6004 67.2402V71.1402H93.2444V67.4442C93.2444 66.8522 93.0964 66.4002 92.8004 66.0882C92.5044 65.7682 92.1004 65.6082 91.5884 65.6082C91.0764 65.6082 90.6684 65.7682 90.3644 66.0882C90.0684 66.4002 89.9204 66.8522 89.9204 67.4442V71.1402H88.5644V67.4442C88.5644 66.8522 88.4164 66.4002 88.1204 66.0882C87.8244 65.7682 87.4204 65.6082 86.9084 65.6082C86.3964 65.6082 85.9884 65.7682 85.6844 66.0882C85.3884 66.4002 85.2404 66.8522 85.2404 67.4442V71.1402H83.8724V64.5282H85.2404V65.2842C85.4644 65.0122 85.7484 64.8002 86.0924 64.6482C86.4364 64.4962 86.8044 64.4202 87.1964 64.4202C87.7244 64.4202 88.1964 64.5322 88.6124 64.7562C89.0284 64.9802 89.3484 65.3042 89.5724 65.7282C89.7724 65.3282 90.0844 65.0122 90.5084 64.7802C90.9324 64.5402 91.3884 64.4202 91.8764 64.4202Z" fill="black" fill-opacity="0.25"/>
</svg>

