<svg width="334" height="76" viewBox="0 0 334 76" fill="none" xmlns="http://www.w3.org/2000/svg">
<rect width="314.905" height="50.3138" rx="10" transform="matrix(-1 0 0 1 315.767 0.232239)" fill="#1A66FF"/>
<path d="M310.69 30.833C309.909 30.0499 308.64 30.0499 307.859 30.833L291.593 47.1333C290.336 48.3939 291.228 50.546 293.009 50.546L325.54 50.546C327.32 50.546 328.213 48.3939 326.955 47.1333L310.69 30.833Z" fill="#1A66FF"/>
<path d="M32.2926 20.1938V31.3138H30.4686V20.1938H32.2926ZM38.2356 26.8658C38.2356 25.9805 38.4169 25.1965 38.7796 24.5138C39.1529 23.8311 39.6542 23.3031 40.2836 22.9298C40.9236 22.5458 41.6276 22.3538 42.3956 22.3538C43.0889 22.3538 43.6916 22.4925 44.2036 22.7698C44.7262 23.0365 45.1422 23.3725 45.4516 23.7778V22.4978H47.2916V31.3138H45.4516V30.0018C45.1422 30.4178 44.7209 30.7645 44.1876 31.0418C43.6542 31.3191 43.0462 31.4578 42.3636 31.4578C41.6062 31.4578 40.9129 31.2658 40.2836 30.8818C39.6542 30.4871 39.1529 29.9431 38.7796 29.2498C38.4169 28.5458 38.2356 27.7511 38.2356 26.8658ZM45.4516 26.8978C45.4516 26.2898 45.3236 25.7618 45.0676 25.3138C44.8222 24.8658 44.4969 24.5245 44.0916 24.2898C43.6862 24.0551 43.2489 23.9378 42.7796 23.9378C42.3102 23.9378 41.8729 24.0551 41.4676 24.2898C41.0622 24.5138 40.7316 24.8498 40.4756 25.2978C40.2302 25.7351 40.1076 26.2578 40.1076 26.8658C40.1076 27.4738 40.2302 28.0071 40.4756 28.4658C40.7316 28.9245 41.0622 29.2765 41.4676 29.5218C41.8836 29.7565 42.3209 29.8738 42.7796 29.8738C43.2489 29.8738 43.6862 29.7565 44.0916 29.5218C44.4969 29.2871 44.8222 28.9458 45.0676 28.4978C45.3236 28.0391 45.4516 27.5058 45.4516 26.8978ZM60.3593 22.3538C61.0526 22.3538 61.6713 22.4978 62.2153 22.7858C62.77 23.0738 63.202 23.5005 63.5113 24.0658C63.8313 24.6311 63.9913 25.3138 63.9913 26.1138V31.3138H62.1833V26.3858C62.1833 25.5965 61.986 24.9938 61.5913 24.5778C61.1966 24.1511 60.658 23.9378 59.9753 23.9378C59.2926 23.9378 58.7486 24.1511 58.3433 24.5778C57.9486 24.9938 57.7513 25.5965 57.7513 26.3858V31.3138H55.9433V26.3858C55.9433 25.5965 55.746 24.9938 55.3513 24.5778C54.9566 24.1511 54.418 23.9378 53.7353 23.9378C53.0526 23.9378 52.5086 24.1511 52.1033 24.5778C51.7086 24.9938 51.5113 25.5965 51.5113 26.3858V31.3138H49.6873V22.4978H51.5113V23.5058C51.81 23.1431 52.1886 22.8605 52.6473 22.6578C53.106 22.4551 53.5966 22.3538 54.1193 22.3538C54.8233 22.3538 55.4526 22.5031 56.0073 22.8018C56.562 23.1005 56.9886 23.5325 57.2873 24.0978C57.554 23.5645 57.97 23.1431 58.5353 22.8338C59.1006 22.5138 59.7086 22.3538 60.3593 22.3538ZM74.0206 22.3538C74.7032 22.3538 75.3059 22.4925 75.8286 22.7698C76.3619 23.0365 76.7779 23.3725 77.0766 23.7778V22.4978H78.9166V31.4578C78.9166 32.2685 78.7459 32.9885 78.4046 33.6178C78.0632 34.2578 77.5672 34.7591 76.9166 35.1218C76.2766 35.4845 75.5086 35.6658 74.6126 35.6658C73.4179 35.6658 72.4259 35.3831 71.6366 34.8178C70.8472 34.2631 70.3992 33.5058 70.2926 32.5458H72.1006C72.2392 33.0045 72.5326 33.3725 72.9806 33.6498C73.4392 33.9378 73.9832 34.0818 74.6126 34.0818C75.3486 34.0818 75.9406 33.8578 76.3886 33.4098C76.8472 32.9618 77.0766 32.3111 77.0766 31.4578V29.9858C76.7672 30.4018 76.3459 30.7538 75.8126 31.0418C75.2899 31.3191 74.6926 31.4578 74.0206 31.4578C73.2526 31.4578 72.5486 31.2658 71.9086 30.8818C71.2792 30.4871 70.7779 29.9431 70.4046 29.2498C70.0419 28.5458 69.8606 27.7511 69.8606 26.8658C69.8606 25.9805 70.0419 25.1965 70.4046 24.5138C70.7779 23.8311 71.2792 23.3031 71.9086 22.9298C72.5486 22.5458 73.2526 22.3538 74.0206 22.3538ZM77.0766 26.8978C77.0766 26.2898 76.9486 25.7618 76.6926 25.3138C76.4472 24.8658 76.1219 24.5245 75.7166 24.2898C75.3112 24.0551 74.8739 23.9378 74.4046 23.9378C73.9352 23.9378 73.4979 24.0551 73.0926 24.2898C72.6872 24.5138 72.3566 24.8498 72.1006 25.2978C71.8552 25.7351 71.7326 26.2578 71.7326 26.8658C71.7326 27.4738 71.8552 28.0071 72.1006 28.4658C72.3566 28.9245 72.6872 29.2765 73.0926 29.5218C73.5086 29.7565 73.9459 29.8738 74.4046 29.8738C74.8739 29.8738 75.3112 29.7565 75.7166 29.5218C76.1219 29.2871 76.4472 28.9458 76.6926 28.4978C76.9486 28.0391 77.0766 27.5058 77.0766 26.8978ZM85.1363 31.4578C84.3043 31.4578 83.5523 31.2711 82.8803 30.8978C82.2083 30.5138 81.6803 29.9805 81.2963 29.2978C80.9123 28.6045 80.7203 27.8045 80.7203 26.8978C80.7203 26.0018 80.9176 25.2071 81.3123 24.5138C81.707 23.8205 82.2456 23.2871 82.9283 22.9138C83.611 22.5405 84.3736 22.3538 85.2163 22.3538C86.059 22.3538 86.8216 22.5405 87.5043 22.9138C88.187 23.2871 88.7256 23.8205 89.1203 24.5138C89.515 25.2071 89.7123 26.0018 89.7123 26.8978C89.7123 27.7938 89.5096 28.5885 89.1043 29.2818C88.699 29.9751 88.1443 30.5138 87.4403 30.8978C86.747 31.2711 85.979 31.4578 85.1363 31.4578ZM85.1363 29.8738C85.6056 29.8738 86.043 29.7618 86.4483 29.5378C86.8643 29.3138 87.2003 28.9778 87.4563 28.5298C87.7123 28.0818 87.8403 27.5378 87.8403 26.8978C87.8403 26.2578 87.7176 25.7191 87.4723 25.2818C87.227 24.8338 86.9016 24.4978 86.4963 24.2738C86.091 24.0498 85.6536 23.9378 85.1843 23.9378C84.715 23.9378 84.2776 24.0498 83.8723 24.2738C83.4776 24.4978 83.163 24.8338 82.9283 25.2818C82.6936 25.7191 82.5763 26.2578 82.5763 26.8978C82.5763 27.8471 82.8163 28.5831 83.2963 29.1058C83.787 29.6178 84.4003 29.8738 85.1363 29.8738ZM95.3394 31.4578C94.5074 31.4578 93.7554 31.2711 93.0834 30.8978C92.4114 30.5138 91.8834 29.9805 91.4994 29.2978C91.1154 28.6045 90.9234 27.8045 90.9234 26.8978C90.9234 26.0018 91.1208 25.2071 91.5154 24.5138C91.9101 23.8205 92.4488 23.2871 93.1314 22.9138C93.8141 22.5405 94.5768 22.3538 95.4194 22.3538C96.2621 22.3538 97.0248 22.5405 97.7074 22.9138C98.3901 23.2871 98.9288 23.8205 99.3234 24.5138C99.7181 25.2071 99.9154 26.0018 99.9154 26.8978C99.9154 27.7938 99.7128 28.5885 99.3074 29.2818C98.9021 29.9751 98.3474 30.5138 97.6434 30.8978C96.9501 31.2711 96.1821 31.4578 95.3394 31.4578ZM95.3394 29.8738C95.8088 29.8738 96.2461 29.7618 96.6514 29.5378C97.0674 29.3138 97.4034 28.9778 97.6594 28.5298C97.9154 28.0818 98.0434 27.5378 98.0434 26.8978C98.0434 26.2578 97.9208 25.7191 97.6754 25.2818C97.4301 24.8338 97.1048 24.4978 96.6994 24.2738C96.2941 24.0498 95.8568 23.9378 95.3874 23.9378C94.9181 23.9378 94.4808 24.0498 94.0754 24.2738C93.6808 24.4978 93.3661 24.8338 93.1314 25.2818C92.8968 25.7191 92.7794 26.2578 92.7794 26.8978C92.7794 27.8471 93.0194 28.5831 93.4994 29.1058C93.9901 29.6178 94.6034 29.8738 95.3394 29.8738ZM101.111 26.8658C101.111 25.9805 101.292 25.1965 101.655 24.5138C102.028 23.8311 102.529 23.3031 103.159 22.9298C103.799 22.5458 104.508 22.3538 105.287 22.3538C105.863 22.3538 106.428 22.4818 106.983 22.7378C107.548 22.9831 107.996 23.3138 108.327 23.7298V19.4738H110.167V31.3138H108.327V29.9858C108.028 30.4125 107.612 30.7645 107.079 31.0418C106.556 31.3191 105.953 31.4578 105.271 31.4578C104.503 31.4578 103.799 31.2658 103.159 30.8818C102.529 30.4871 102.028 29.9431 101.655 29.2498C101.292 28.5458 101.111 27.7511 101.111 26.8658ZM108.327 26.8978C108.327 26.2898 108.199 25.7618 107.943 25.3138C107.697 24.8658 107.372 24.5245 106.967 24.2898C106.561 24.0551 106.124 23.9378 105.655 23.9378C105.185 23.9378 104.748 24.0551 104.343 24.2898C103.937 24.5138 103.607 24.8498 103.351 25.2978C103.105 25.7351 102.983 26.2578 102.983 26.8658C102.983 27.4738 103.105 28.0071 103.351 28.4658C103.607 28.9245 103.937 29.2765 104.343 29.5218C104.759 29.7565 105.196 29.8738 105.655 29.8738C106.124 29.8738 106.561 29.7565 106.967 29.5218C107.372 29.2871 107.697 28.9458 107.943 28.4978C108.199 28.0391 108.327 27.5058 108.327 26.8978ZM120.267 26.8658C120.267 25.9805 120.448 25.1965 120.811 24.5138C121.184 23.8311 121.685 23.3031 122.315 22.9298C122.955 22.5458 123.659 22.3538 124.427 22.3538C125.12 22.3538 125.723 22.4925 126.235 22.7698C126.757 23.0365 127.173 23.3725 127.483 23.7778V22.4978H129.323V31.3138H127.483V30.0018C127.173 30.4178 126.752 30.7645 126.219 31.0418C125.685 31.3191 125.077 31.4578 124.395 31.4578C123.637 31.4578 122.944 31.2658 122.315 30.8818C121.685 30.4871 121.184 29.9431 120.811 29.2498C120.448 28.5458 120.267 27.7511 120.267 26.8658ZM127.483 26.8978C127.483 26.2898 127.355 25.7618 127.099 25.3138C126.853 24.8658 126.528 24.5245 126.123 24.2898C125.717 24.0551 125.28 23.9378 124.811 23.9378C124.341 23.9378 123.904 24.0551 123.499 24.2898C123.093 24.5138 122.763 24.8498 122.507 25.2978C122.261 25.7351 122.139 26.2578 122.139 26.8658C122.139 27.4738 122.261 28.0071 122.507 28.4658C122.763 28.9245 123.093 29.2765 123.499 29.5218C123.915 29.7565 124.352 29.8738 124.811 29.8738C125.28 29.8738 125.717 29.7565 126.123 29.5218C126.528 29.2871 126.853 28.9458 127.099 28.4978C127.355 28.0391 127.483 27.5058 127.483 26.8978ZM136.167 22.3538C136.86 22.3538 137.479 22.4978 138.023 22.7858C138.577 23.0738 139.009 23.5005 139.319 24.0658C139.628 24.6311 139.783 25.3138 139.783 26.1138V31.3138H137.975V26.3858C137.975 25.5965 137.777 24.9938 137.383 24.5778C136.988 24.1511 136.449 23.9378 135.767 23.9378C135.084 23.9378 134.54 24.1511 134.135 24.5778C133.74 24.9938 133.543 25.5965 133.543 26.3858V31.3138H131.719V22.4978H133.543V23.5058C133.841 23.1431 134.22 22.8605 134.679 22.6578C135.148 22.4551 135.644 22.3538 136.167 22.3538ZM141.501 26.8658C141.501 25.9805 141.683 25.1965 142.045 24.5138C142.419 23.8311 142.92 23.3031 143.549 22.9298C144.189 22.5458 144.899 22.3538 145.677 22.3538C146.253 22.3538 146.819 22.4818 147.373 22.7378C147.939 22.9831 148.387 23.3138 148.717 23.7298V19.4738H150.557V31.3138H148.717V29.9858C148.419 30.4125 148.003 30.7645 147.469 31.0418C146.947 31.3191 146.344 31.4578 145.661 31.4578C144.893 31.4578 144.189 31.2658 143.549 30.8818C142.92 30.4871 142.419 29.9431 142.045 29.2498C141.683 28.5458 141.501 27.7511 141.501 26.8658ZM148.717 26.8978C148.717 26.2898 148.589 25.7618 148.333 25.3138C148.088 24.8658 147.763 24.5245 147.357 24.2898C146.952 24.0551 146.515 23.9378 146.045 23.9378C145.576 23.9378 145.139 24.0551 144.733 24.2898C144.328 24.5138 143.997 24.8498 143.741 25.2978C143.496 25.7351 143.373 26.2578 143.373 26.8658C143.373 27.4738 143.496 28.0071 143.741 28.4658C143.997 28.9245 144.328 29.2765 144.733 29.5218C145.149 29.7565 145.587 29.8738 146.045 29.8738C146.515 29.8738 146.952 29.7565 147.357 29.5218C147.763 29.2871 148.088 28.9458 148.333 28.4978C148.589 28.0391 148.717 27.5058 148.717 26.8978ZM161.669 22.3538C162.341 22.3538 162.939 22.4978 163.461 22.7858C163.995 23.0738 164.411 23.5005 164.709 24.0658C165.019 24.6311 165.173 25.3138 165.173 26.1138V31.3138H163.365V26.3858C163.365 25.5965 163.168 24.9938 162.773 24.5778C162.379 24.1511 161.84 23.9378 161.157 23.9378C160.475 23.9378 159.931 24.1511 159.525 24.5778C159.131 24.9938 158.933 25.5965 158.933 26.3858V31.3138H157.109V19.4738H158.933V23.5218C159.243 23.1485 159.632 22.8605 160.101 22.6578C160.581 22.4551 161.104 22.3538 161.669 22.3538ZM171.324 31.4578C170.492 31.4578 169.74 31.2711 169.068 30.8978C168.396 30.5138 167.868 29.9805 167.484 29.2978C167.1 28.6045 166.908 27.8045 166.908 26.8978C166.908 26.0018 167.105 25.2071 167.5 24.5138C167.894 23.8205 168.433 23.2871 169.116 22.9138C169.798 22.5405 170.561 22.3538 171.404 22.3538C172.246 22.3538 173.009 22.5405 173.692 22.9138C174.374 23.2871 174.913 23.8205 175.308 24.5138C175.702 25.2071 175.9 26.0018 175.9 26.8978C175.9 27.7938 175.697 28.5885 175.292 29.2818C174.886 29.9751 174.332 30.5138 173.628 30.8978C172.934 31.2711 172.166 31.4578 171.324 31.4578ZM171.324 29.8738C171.793 29.8738 172.23 29.7618 172.636 29.5378C173.052 29.3138 173.388 28.9778 173.644 28.5298C173.9 28.0818 174.028 27.5378 174.028 26.8978C174.028 26.2578 173.905 25.7191 173.66 25.2818C173.414 24.8338 173.089 24.4978 172.684 24.2738C172.278 24.0498 171.841 23.9378 171.372 23.9378C170.902 23.9378 170.465 24.0498 170.06 24.2738C169.665 24.4978 169.35 24.8338 169.116 25.2818C168.881 25.7191 168.764 26.2578 168.764 26.8978C168.764 27.8471 169.004 28.5831 169.484 29.1058C169.974 29.6178 170.588 29.8738 171.324 29.8738ZM185.783 26.6898C185.783 27.0205 185.762 27.3191 185.719 27.5858H178.983C179.036 28.2898 179.298 28.8551 179.767 29.2818C180.236 29.7085 180.812 29.9218 181.495 29.9218C182.476 29.9218 183.17 29.5111 183.575 28.6898H185.543C185.276 29.5005 184.791 30.1671 184.087 30.6898C183.394 31.2018 182.53 31.4578 181.495 31.4578C180.652 31.4578 179.895 31.2711 179.223 30.8978C178.562 30.5138 178.039 29.9805 177.655 29.2978C177.282 28.6045 177.095 27.8045 177.095 26.8978C177.095 25.9911 177.276 25.1965 177.639 24.5138C178.012 23.8205 178.53 23.2871 179.191 22.9138C179.863 22.5405 180.631 22.3538 181.495 22.3538C182.327 22.3538 183.068 22.5351 183.719 22.8978C184.37 23.2605 184.876 23.7725 185.239 24.4338C185.602 25.0845 185.783 25.8365 185.783 26.6898ZM183.879 26.1138C183.868 25.4418 183.628 24.9031 183.159 24.4978C182.69 24.0925 182.108 23.8898 181.415 23.8898C180.786 23.8898 180.247 24.0925 179.799 24.4978C179.351 24.8925 179.084 25.4311 178.999 26.1138H183.879ZM199.418 22.4978L196.682 31.3138H194.762L192.986 24.8018L191.21 31.3138H189.29L186.538 22.4978H188.394L190.234 29.5858L192.106 22.4978H194.01L195.802 29.5538L197.626 22.4978H199.418ZM204.329 26.8658C204.329 25.9805 204.511 25.1965 204.873 24.5138C205.247 23.8311 205.748 23.3031 206.377 22.9298C207.017 22.5458 207.721 22.3538 208.489 22.3538C209.183 22.3538 209.785 22.4925 210.297 22.7698C210.82 23.0365 211.236 23.3725 211.545 23.7778V22.4978H213.385V31.3138H211.545V30.0018C211.236 30.4178 210.815 30.7645 210.281 31.0418C209.748 31.3191 209.14 31.4578 208.457 31.4578C207.7 31.4578 207.007 31.2658 206.377 30.8818C205.748 30.4871 205.247 29.9431 204.873 29.2498C204.511 28.5458 204.329 27.7511 204.329 26.8658ZM211.545 26.8978C211.545 26.2898 211.417 25.7618 211.161 25.3138C210.916 24.8658 210.591 24.5245 210.185 24.2898C209.78 24.0551 209.343 23.9378 208.873 23.9378C208.404 23.9378 207.967 24.0551 207.561 24.2898C207.156 24.5138 206.825 24.8498 206.569 25.2978C206.324 25.7351 206.201 26.2578 206.201 26.8658C206.201 27.4738 206.324 28.0071 206.569 28.4658C206.825 28.9245 207.156 29.2765 207.561 29.5218C207.977 29.7565 208.415 29.8738 208.873 29.8738C209.343 29.8738 209.78 29.7565 210.185 29.5218C210.591 29.2871 210.916 28.9458 211.161 28.4978C211.417 28.0391 211.545 27.5058 211.545 26.8978ZM217.605 23.8098C217.914 23.3831 218.336 23.0365 218.869 22.7698C219.413 22.4925 220.016 22.3538 220.677 22.3538C221.456 22.3538 222.16 22.5405 222.789 22.9138C223.418 23.2871 223.914 23.8205 224.277 24.5138C224.64 25.1965 224.821 25.9805 224.821 26.8658C224.821 27.7511 224.64 28.5458 224.277 29.2498C223.914 29.9431 223.413 30.4871 222.773 30.8818C222.144 31.2658 221.445 31.4578 220.677 31.4578C219.994 31.4578 219.386 31.3245 218.853 31.0578C218.33 30.7911 217.914 30.4498 217.605 30.0338V31.3138H215.781V19.4738H217.605V23.8098ZM222.965 26.8658C222.965 26.2578 222.837 25.7351 222.581 25.2978C222.336 24.8498 222.005 24.5138 221.589 24.2898C221.184 24.0551 220.746 23.9378 220.277 23.9378C219.818 23.9378 219.381 24.0551 218.965 24.2898C218.56 24.5245 218.229 24.8658 217.973 25.3138C217.728 25.7618 217.605 26.2898 217.605 26.8978C217.605 27.5058 217.728 28.0391 217.973 28.4978C218.229 28.9458 218.56 29.2871 218.965 29.5218C219.381 29.7565 219.818 29.8738 220.277 29.8738C220.746 29.8738 221.184 29.7565 221.589 29.5218C222.005 29.2765 222.336 28.9245 222.581 28.4658C222.837 28.0071 222.965 27.4738 222.965 26.8658ZM230.449 31.4578C229.617 31.4578 228.865 31.2711 228.193 30.8978C227.521 30.5138 226.993 29.9805 226.609 29.2978C226.225 28.6045 226.033 27.8045 226.033 26.8978C226.033 26.0018 226.23 25.2071 226.625 24.5138C227.019 23.8205 227.558 23.2871 228.241 22.9138C228.923 22.5405 229.686 22.3538 230.529 22.3538C231.371 22.3538 232.134 22.5405 232.817 22.9138C233.499 23.2871 234.038 23.8205 234.433 24.5138C234.827 25.2071 235.025 26.0018 235.025 26.8978C235.025 27.7938 234.822 28.5885 234.417 29.2818C234.011 29.9751 233.457 30.5138 232.753 30.8978C232.059 31.2711 231.291 31.4578 230.449 31.4578ZM230.449 29.8738C230.918 29.8738 231.355 29.7618 231.761 29.5378C232.177 29.3138 232.513 28.9778 232.769 28.5298C233.025 28.0818 233.153 27.5378 233.153 26.8978C233.153 26.2578 233.03 25.7191 232.785 25.2818C232.539 24.8338 232.214 24.4978 231.809 24.2738C231.403 24.0498 230.966 23.9378 230.497 23.9378C230.027 23.9378 229.59 24.0498 229.185 24.2738C228.79 24.4978 228.475 24.8338 228.241 25.2818C228.006 25.7191 227.889 26.2578 227.889 26.8978C227.889 27.8471 228.129 28.5831 228.609 29.1058C229.099 29.6178 229.713 29.8738 230.449 29.8738ZM244.812 22.4978V31.3138H242.988V30.2738C242.7 30.6365 242.321 30.9245 241.852 31.1378C241.393 31.3405 240.903 31.4418 240.38 31.4418C239.687 31.4418 239.063 31.2978 238.508 31.0098C237.964 30.7218 237.532 30.2951 237.212 29.7298C236.903 29.1645 236.748 28.4818 236.748 27.6818V22.4978H238.556V27.4098C238.556 28.1991 238.753 28.8071 239.148 29.2338C239.543 29.6498 240.081 29.8578 240.764 29.8578C241.447 29.8578 241.985 29.6498 242.38 29.2338C242.785 28.8071 242.988 28.1991 242.988 27.4098V22.4978H244.812ZM249.347 23.9858V28.8658C249.347 29.1965 249.421 29.4365 249.571 29.5858C249.731 29.7245 249.997 29.7938 250.371 29.7938H251.491V31.3138H250.051C249.229 31.3138 248.6 31.1218 248.163 30.7378C247.725 30.3538 247.507 29.7298 247.507 28.8658V23.9858H246.467V22.4978H247.507V20.3058H249.347V22.4978H251.491V23.9858H249.347ZM265.264 22.4978L259.856 35.4578H257.968L259.76 31.1698L256.288 22.4978H258.32L260.8 29.2178L263.376 22.4978H265.264ZM270.464 31.4578C269.632 31.4578 268.88 31.2711 268.208 30.8978C267.536 30.5138 267.008 29.9805 266.624 29.2978C266.24 28.6045 266.048 27.8045 266.048 26.8978C266.048 26.0018 266.246 25.2071 266.64 24.5138C267.035 23.8205 267.574 23.2871 268.256 22.9138C268.939 22.5405 269.702 22.3538 270.544 22.3538C271.387 22.3538 272.15 22.5405 272.832 22.9138C273.515 23.2871 274.054 23.8205 274.448 24.5138C274.843 25.2071 275.04 26.0018 275.04 26.8978C275.04 27.7938 274.838 28.5885 274.432 29.2818C274.027 29.9751 273.472 30.5138 272.768 30.8978C272.075 31.2711 271.307 31.4578 270.464 31.4578ZM270.464 29.8738C270.934 29.8738 271.371 29.7618 271.776 29.5378C272.192 29.3138 272.528 28.9778 272.784 28.5298C273.04 28.0818 273.168 27.5378 273.168 26.8978C273.168 26.2578 273.046 25.7191 272.8 25.2818C272.555 24.8338 272.23 24.4978 271.824 24.2738C271.419 24.0498 270.982 23.9378 270.512 23.9378C270.043 23.9378 269.606 24.0498 269.2 24.2738C268.806 24.4978 268.491 24.8338 268.256 25.2818C268.022 25.7191 267.904 26.2578 267.904 26.8978C267.904 27.8471 268.144 28.5831 268.624 29.1058C269.115 29.6178 269.728 29.8738 270.464 29.8738ZM284.828 22.4978V31.3138H283.004V30.2738C282.716 30.6365 282.337 30.9245 281.868 31.1378C281.409 31.3405 280.918 31.4418 280.396 31.4418C279.702 31.4418 279.078 31.2978 278.524 31.0098C277.98 30.7218 277.548 30.2951 277.228 29.7298C276.918 29.1645 276.764 28.4818 276.764 27.6818V22.4978H278.572V27.4098C278.572 28.1991 278.769 28.8071 279.164 29.2338C279.558 29.6498 280.097 29.8578 280.78 29.8578C281.462 29.8578 282.001 29.6498 282.396 29.2338C282.801 28.8071 283.004 28.1991 283.004 27.4098V22.4978H284.828ZM290.226 20.0338C291.314 20.0338 292.184 20.3325 292.834 20.9298C293.496 21.5271 293.826 22.3431 293.826 23.3778C293.826 24.4551 293.485 25.2658 292.802 25.8098C292.12 26.3538 291.213 26.6258 290.082 26.6258L290.018 27.8898H288.434L288.354 25.3778H288.882C289.917 25.3778 290.706 25.2391 291.25 24.9618C291.805 24.6845 292.082 24.1565 292.082 23.3778C292.082 22.8125 291.917 22.3698 291.586 22.0498C291.266 21.7298 290.818 21.5698 290.242 21.5698C289.666 21.5698 289.213 21.7245 288.882 22.0338C288.552 22.3431 288.386 22.7751 288.386 23.3298H286.674C286.674 22.6898 286.818 22.1191 287.106 21.6178C287.394 21.1165 287.805 20.7271 288.338 20.4498C288.882 20.1725 289.512 20.0338 290.226 20.0338ZM289.202 31.4258C288.872 31.4258 288.594 31.3138 288.37 31.0898C288.146 30.8658 288.034 30.5885 288.034 30.2578C288.034 29.9271 288.146 29.6498 288.37 29.4258C288.594 29.2018 288.872 29.0898 289.202 29.0898C289.522 29.0898 289.794 29.2018 290.018 29.4258C290.242 29.6498 290.354 29.9271 290.354 30.2578C290.354 30.5885 290.242 30.8658 290.018 31.0898C289.794 31.3138 289.522 31.4258 289.202 31.4258Z" fill="white"/>
<path d="M243.532 62.25V63.366H241.312V70.59H239.944V63.366H237.712V62.25H243.532ZM247.785 70.698C247.161 70.698 246.597 70.558 246.093 70.278C245.589 69.99 245.193 69.59 244.905 69.078C244.617 68.558 244.473 67.958 244.473 67.278C244.473 66.606 244.621 66.01 244.917 65.49C245.213 64.97 245.617 64.57 246.129 64.29C246.641 64.01 247.213 63.87 247.845 63.87C248.477 63.87 249.049 64.01 249.561 64.29C250.073 64.57 250.477 64.97 250.773 65.49C251.069 66.01 251.217 66.606 251.217 67.278C251.217 67.95 251.065 68.546 250.761 69.066C250.457 69.586 250.041 69.99 249.513 70.278C248.993 70.558 248.417 70.698 247.785 70.698ZM247.785 69.51C248.137 69.51 248.465 69.426 248.769 69.258C249.081 69.09 249.333 68.838 249.525 68.502C249.717 68.166 249.813 67.758 249.813 67.278C249.813 66.798 249.721 66.394 249.537 66.066C249.353 65.73 249.109 65.478 248.805 65.31C248.501 65.142 248.173 65.058 247.821 65.058C247.469 65.058 247.141 65.142 246.837 65.31C246.541 65.478 246.305 65.73 246.129 66.066C245.953 66.394 245.865 66.798 245.865 67.278C245.865 67.99 246.045 68.542 246.405 68.934C246.773 69.318 247.233 69.51 247.785 69.51ZM252.114 67.254C252.114 66.59 252.25 66.002 252.522 65.49C252.802 64.978 253.178 64.582 253.65 64.302C254.13 64.014 254.662 63.87 255.246 63.87C255.678 63.87 256.102 63.966 256.518 64.158C256.942 64.342 257.278 64.59 257.526 64.902V61.71H258.906V70.59H257.526V69.594C257.302 69.914 256.99 70.178 256.59 70.386C256.198 70.594 255.746 70.698 255.234 70.698C254.658 70.698 254.13 70.554 253.65 70.266C253.178 69.97 252.802 69.562 252.522 69.042C252.25 68.514 252.114 67.918 252.114 67.254ZM257.526 67.278C257.526 66.822 257.43 66.426 257.238 66.09C257.054 65.754 256.81 65.498 256.506 65.322C256.202 65.146 255.874 65.058 255.522 65.058C255.17 65.058 254.842 65.146 254.538 65.322C254.234 65.49 253.986 65.742 253.794 66.078C253.61 66.406 253.518 66.798 253.518 67.254C253.518 67.71 253.61 68.11 253.794 68.454C253.986 68.798 254.234 69.062 254.538 69.246C254.85 69.422 255.178 69.51 255.522 69.51C255.874 69.51 256.202 69.422 256.506 69.246C256.81 69.07 257.054 68.814 257.238 68.478C257.43 68.134 257.526 67.734 257.526 67.278ZM260.246 67.254C260.246 66.59 260.382 66.002 260.654 65.49C260.934 64.978 261.31 64.582 261.782 64.302C262.262 64.014 262.79 63.87 263.366 63.87C263.886 63.87 264.338 63.974 264.722 64.182C265.114 64.382 265.426 64.634 265.658 64.938V63.978H267.038V70.59H265.658V69.606C265.426 69.918 265.11 70.178 264.71 70.386C264.31 70.594 263.854 70.698 263.342 70.698C262.774 70.698 262.254 70.554 261.782 70.266C261.31 69.97 260.934 69.562 260.654 69.042C260.382 68.514 260.246 67.918 260.246 67.254ZM265.658 67.278C265.658 66.822 265.562 66.426 265.37 66.09C265.186 65.754 264.942 65.498 264.638 65.322C264.334 65.146 264.006 65.058 263.654 65.058C263.302 65.058 262.974 65.146 262.67 65.322C262.366 65.49 262.118 65.742 261.926 66.078C261.742 66.406 261.65 66.798 261.65 67.254C261.65 67.71 261.742 68.11 261.926 68.454C262.118 68.798 262.366 69.062 262.67 69.246C262.982 69.422 263.31 69.51 263.654 69.51C264.006 69.51 264.334 69.422 264.638 69.246C264.942 69.07 265.186 68.814 265.37 68.478C265.562 68.134 265.658 67.734 265.658 67.278ZM274.787 63.978L270.731 73.698H269.315L270.659 70.482L268.055 63.978H269.579L271.439 69.018L273.371 63.978H274.787ZM277.32 68.946L275.868 72.258H274.98L275.832 68.946H277.32ZM282.208 68.73C282.976 68.066 283.58 67.522 284.02 67.098C284.468 66.666 284.84 66.218 285.136 65.754C285.432 65.29 285.58 64.826 285.58 64.362C285.58 63.882 285.464 63.506 285.232 63.234C285.008 62.962 284.652 62.826 284.164 62.826C283.692 62.826 283.324 62.978 283.06 63.282C282.804 63.578 282.668 63.978 282.652 64.482H281.332C281.356 63.57 281.628 62.874 282.148 62.394C282.676 61.906 283.344 61.662 284.152 61.662C285.024 61.662 285.704 61.902 286.192 62.382C286.688 62.862 286.936 63.502 286.936 64.302C286.936 64.878 286.788 65.434 286.492 65.97C286.204 66.498 285.856 66.974 285.448 67.398C285.048 67.814 284.536 68.298 283.912 68.85L283.372 69.33H287.176V70.47H281.344V69.474L282.208 68.73ZM289.11 70.674C288.862 70.674 288.654 70.59 288.486 70.422C288.318 70.254 288.234 70.046 288.234 69.798C288.234 69.55 288.318 69.342 288.486 69.174C288.654 69.006 288.862 68.922 289.11 68.922C289.35 68.922 289.554 69.006 289.722 69.174C289.89 69.342 289.974 69.55 289.974 69.798C289.974 70.046 289.89 70.254 289.722 70.422C289.554 70.59 289.35 70.674 289.11 70.674ZM289.11 65.634C288.862 65.634 288.654 65.55 288.486 65.382C288.318 65.214 288.234 65.006 288.234 64.758C288.234 64.51 288.318 64.302 288.486 64.134C288.654 63.966 288.862 63.882 289.11 63.882C289.35 63.882 289.554 63.966 289.722 64.134C289.89 64.302 289.974 64.51 289.974 64.758C289.974 65.006 289.89 65.214 289.722 65.382C289.554 65.55 289.35 65.634 289.11 65.634ZM291.139 63.09V61.842H293.635V70.59H292.255V63.09H291.139ZM296.271 68.73C297.039 68.066 297.643 67.522 298.083 67.098C298.531 66.666 298.903 66.218 299.199 65.754C299.495 65.29 299.643 64.826 299.643 64.362C299.643 63.882 299.527 63.506 299.295 63.234C299.071 62.962 298.715 62.826 298.227 62.826C297.755 62.826 297.387 62.978 297.123 63.282C296.867 63.578 296.731 63.978 296.715 64.482H295.395C295.419 63.57 295.691 62.874 296.211 62.394C296.739 61.906 297.407 61.662 298.215 61.662C299.087 61.662 299.767 61.902 300.255 62.382C300.751 62.862 300.999 63.502 300.999 64.302C300.999 64.878 300.851 65.434 300.555 65.97C300.267 66.498 299.919 66.974 299.511 67.398C299.111 67.814 298.599 68.298 297.975 68.85L297.435 69.33H301.239V70.47H295.407V69.474L296.271 68.73ZM303.988 64.95C304.22 64.646 304.536 64.39 304.936 64.182C305.336 63.974 305.788 63.87 306.292 63.87C306.868 63.87 307.392 64.014 307.864 64.302C308.344 64.582 308.72 64.978 308.992 65.49C309.264 66.002 309.4 66.59 309.4 67.254C309.4 67.918 309.264 68.514 308.992 69.042C308.72 69.562 308.344 69.97 307.864 70.266C307.392 70.554 306.868 70.698 306.292 70.698C305.788 70.698 305.34 70.598 304.948 70.398C304.556 70.19 304.236 69.934 303.988 69.63V73.734H302.62V63.978H303.988V64.95ZM308.008 67.254C308.008 66.798 307.912 66.406 307.72 66.078C307.536 65.742 307.288 65.49 306.976 65.322C306.672 65.146 306.344 65.058 305.992 65.058C305.648 65.058 305.32 65.146 305.008 65.322C304.704 65.498 304.456 65.754 304.264 66.09C304.08 66.426 303.988 66.822 303.988 67.278C303.988 67.734 304.08 68.134 304.264 68.478C304.456 68.814 304.704 69.07 305.008 69.246C305.32 69.422 305.648 69.51 305.992 69.51C306.344 69.51 306.672 69.422 306.976 69.246C307.288 69.062 307.536 68.798 307.72 68.454C307.912 68.11 308.008 67.71 308.008 67.254ZM318.757 63.87C319.277 63.87 319.741 63.978 320.149 64.194C320.565 64.41 320.889 64.73 321.121 65.154C321.361 65.578 321.481 66.09 321.481 66.69V70.59H320.125V66.894C320.125 66.302 319.977 65.85 319.681 65.538C319.385 65.218 318.981 65.058 318.469 65.058C317.957 65.058 317.549 65.218 317.245 65.538C316.949 65.85 316.801 66.302 316.801 66.894V70.59H315.445V66.894C315.445 66.302 315.297 65.85 315.001 65.538C314.705 65.218 314.301 65.058 313.789 65.058C313.277 65.058 312.869 65.218 312.565 65.538C312.269 65.85 312.121 66.302 312.121 66.894V70.59H310.753V63.978H312.121V64.734C312.345 64.462 312.629 64.25 312.973 64.098C313.317 63.946 313.685 63.87 314.077 63.87C314.605 63.87 315.077 63.982 315.493 64.206C315.909 64.43 316.229 64.754 316.453 65.178C316.653 64.778 316.965 64.462 317.389 64.23C317.813 63.99 318.269 63.87 318.757 63.87Z" fill="black" fill-opacity="0.25"/>
</svg>

