<svg width="209" height="76" viewBox="0 0 209 76" fill="none" xmlns="http://www.w3.org/2000/svg">
<rect x="11.9434" y="0.129715" width="196.816" height="50.3138" rx="10" fill="#CFCFCF"/>
<path d="M14.3044 32.0328C15.0874 30.7773 16.9154 30.7773 17.6984 32.0328L27.273 47.3852C28.1038 48.7173 27.1459 50.4435 25.5759 50.4435H6.42685C4.85685 50.4435 3.89902 48.7173 4.72983 47.3852L14.3044 32.0328Z" fill="#CFCFCF"/>
<path d="M74.7781 20.0913V31.2113H72.9541V26.3473H67.7221V31.2113H65.8981V20.0913H67.7221V24.8593H72.9541V20.0913H74.7781ZM85.2594 26.5873C85.2594 26.918 85.238 27.2166 85.1954 27.4833H78.4594C78.5127 28.1873 78.774 28.7526 79.2434 29.1793C79.7127 29.606 80.2887 29.8193 80.9714 29.8193C81.9527 29.8193 82.646 29.4086 83.0514 28.5873H85.0194C84.7527 29.398 84.2674 30.0646 83.5634 30.5873C82.87 31.0993 82.006 31.3553 80.9714 31.3553C80.1287 31.3553 79.3714 31.1686 78.6994 30.7953C78.038 30.4113 77.5154 29.878 77.1314 29.1953C76.758 28.502 76.5714 27.702 76.5714 26.7953C76.5714 25.8886 76.7527 25.094 77.1154 24.4113C77.4887 23.718 78.006 23.1846 78.6674 22.8113C79.3394 22.438 80.1074 22.2513 80.9714 22.2513C81.8034 22.2513 82.5447 22.4326 83.1954 22.7953C83.846 23.158 84.3527 23.67 84.7154 24.3313C85.078 24.982 85.2594 25.734 85.2594 26.5873ZM83.3554 26.0113C83.3447 25.3393 83.1047 24.8006 82.6354 24.3953C82.166 23.99 81.5847 23.7873 80.8914 23.7873C80.262 23.7873 79.7234 23.99 79.2754 24.3953C78.8274 24.79 78.5607 25.3286 78.4754 26.0113H83.3554ZM94.9904 22.3953L89.5824 35.3553H87.6944L89.4864 31.0673L86.0144 22.3953H88.0464L90.5264 29.1153L93.1024 22.3953H94.9904ZM107.707 20.0913V21.5793H104.747V31.2113H102.923V21.5793H99.9471V20.0913H107.707ZM114.114 22.2513C114.786 22.2513 115.384 22.3953 115.906 22.6833C116.44 22.9713 116.856 23.398 117.154 23.9633C117.464 24.5286 117.618 25.2113 117.618 26.0113V31.2113H115.81V26.2833C115.81 25.494 115.613 24.8913 115.218 24.4753C114.824 24.0486 114.285 23.8353 113.602 23.8353C112.92 23.8353 112.376 24.0486 111.97 24.4753C111.576 24.8913 111.378 25.494 111.378 26.2833V31.2113H109.554V19.3713H111.378V23.4193C111.688 23.046 112.077 22.758 112.546 22.5553C113.026 22.3526 113.549 22.2513 114.114 22.2513ZM128.025 26.5873C128.025 26.918 128.004 27.2166 127.961 27.4833H121.225C121.278 28.1873 121.54 28.7526 122.009 29.1793C122.478 29.606 123.054 29.8193 123.737 29.8193C124.718 29.8193 125.412 29.4086 125.817 28.5873H127.785C127.518 29.398 127.033 30.0646 126.329 30.5873C125.636 31.0993 124.772 31.3553 123.737 31.3553C122.894 31.3553 122.137 31.1686 121.465 30.7953C120.804 30.4113 120.281 29.878 119.897 29.1953C119.524 28.502 119.337 27.702 119.337 26.7953C119.337 25.8886 119.518 25.094 119.881 24.4113C120.254 23.718 120.772 23.1846 121.433 22.8113C122.105 22.438 122.873 22.2513 123.737 22.2513C124.569 22.2513 125.31 22.4326 125.961 22.7953C126.612 23.158 127.118 23.67 127.481 24.3313C127.844 24.982 128.025 25.734 128.025 26.5873ZM126.121 26.0113C126.11 25.3393 125.87 24.8006 125.401 24.3953C124.932 23.99 124.35 23.7873 123.657 23.7873C123.028 23.7873 122.489 23.99 122.041 24.3953C121.593 24.79 121.326 25.3286 121.241 26.0113H126.121ZM131.644 23.6753C131.911 23.2273 132.263 22.8806 132.7 22.6353C133.148 22.3793 133.676 22.2513 134.284 22.2513V24.1393H133.82C133.105 24.1393 132.561 24.3206 132.188 24.6833C131.825 25.046 131.644 25.6753 131.644 26.5713V31.2113H129.82V22.3953H131.644V23.6753ZM144.041 26.5873C144.041 26.918 144.019 27.2166 143.977 27.4833H137.241C137.294 28.1873 137.555 28.7526 138.025 29.1793C138.494 29.606 139.07 29.8193 139.753 29.8193C140.734 29.8193 141.427 29.4086 141.833 28.5873H143.801C143.534 29.398 143.049 30.0646 142.345 30.5873C141.651 31.0993 140.787 31.3553 139.753 31.3553C138.91 31.3553 138.153 31.1686 137.481 30.7953C136.819 30.4113 136.297 29.878 135.913 29.1953C135.539 28.502 135.353 27.702 135.353 26.7953C135.353 25.8886 135.534 25.094 135.897 24.4113C136.27 23.718 136.787 23.1846 137.449 22.8113C138.121 22.438 138.889 22.2513 139.753 22.2513C140.585 22.2513 141.326 22.4326 141.977 22.7953C142.627 23.158 143.134 23.67 143.497 24.3313C143.859 24.982 144.041 25.734 144.041 26.5873ZM142.137 26.0113C142.126 25.3393 141.886 24.8006 141.417 24.3953C140.947 23.99 140.366 23.7873 139.673 23.7873C139.043 23.7873 138.505 23.99 138.057 24.3953C137.609 24.79 137.342 25.3286 137.257 26.0113H142.137ZM152.28 20.0913L152.072 27.8513H150.552L150.344 20.0913H152.28ZM151.368 31.3233C151.037 31.3233 150.76 31.2113 150.536 30.9873C150.312 30.7633 150.2 30.486 150.2 30.1553C150.2 29.8246 150.312 29.5473 150.536 29.3233C150.76 29.0993 151.037 28.9873 151.368 28.9873C151.688 28.9873 151.96 29.0993 152.184 29.3233C152.408 29.5473 152.52 29.8246 152.52 30.1553C152.52 30.486 152.408 30.7633 152.184 30.9873C151.96 31.2113 151.688 31.3233 151.368 31.3233Z" fill="black"/>
<path d="M13.1589 62.1474V63.2634H10.9388V70.4874H9.57085V63.2634H7.33885V62.1474H13.1589ZM17.4123 70.5954C16.7883 70.5954 16.2243 70.4554 15.7203 70.1754C15.2163 69.8874 14.8203 69.4874 14.5323 68.9754C14.2443 68.4554 14.1003 67.8554 14.1003 67.1754C14.1003 66.5034 14.2483 65.9074 14.5443 65.3874C14.8403 64.8674 15.2443 64.4674 15.7563 64.1874C16.2683 63.9074 16.8403 63.7674 17.4723 63.7674C18.1043 63.7674 18.6763 63.9074 19.1883 64.1874C19.7003 64.4674 20.1043 64.8674 20.4003 65.3874C20.6963 65.9074 20.8443 66.5034 20.8443 67.1754C20.8443 67.8474 20.6923 68.4434 20.3883 68.9634C20.0843 69.4834 19.6683 69.8874 19.1403 70.1754C18.6203 70.4554 18.0443 70.5954 17.4123 70.5954ZM17.4123 69.4074C17.7643 69.4074 18.0923 69.3234 18.3963 69.1554C18.7083 68.9874 18.9603 68.7354 19.1523 68.3994C19.3443 68.0634 19.4403 67.6554 19.4403 67.1754C19.4403 66.6954 19.3483 66.2914 19.1643 65.9634C18.9803 65.6274 18.7363 65.3754 18.4323 65.2074C18.1283 65.0394 17.8003 64.9554 17.4483 64.9554C17.0963 64.9554 16.7683 65.0394 16.4643 65.2074C16.1683 65.3754 15.9323 65.6274 15.7563 65.9634C15.5803 66.2914 15.4923 66.6954 15.4923 67.1754C15.4923 67.8874 15.6723 68.4394 16.0323 68.8314C16.4003 69.2154 16.8603 69.4074 17.4123 69.4074ZM21.7406 67.1514C21.7406 66.4874 21.8766 65.8994 22.1486 65.3874C22.4286 64.8754 22.8046 64.4794 23.2766 64.1994C23.7566 63.9114 24.2886 63.7674 24.8726 63.7674C25.3046 63.7674 25.7286 63.8634 26.1446 64.0554C26.5686 64.2394 26.9046 64.4874 27.1526 64.7994V61.6074H28.5326V70.4874H27.1526V69.4914C26.9286 69.8114 26.6166 70.0754 26.2166 70.2834C25.8246 70.4914 25.3726 70.5954 24.8606 70.5954C24.2846 70.5954 23.7566 70.4514 23.2766 70.1634C22.8046 69.8674 22.4286 69.4594 22.1486 68.9394C21.8766 68.4114 21.7406 67.8154 21.7406 67.1514ZM27.1526 67.1754C27.1526 66.7194 27.0566 66.3234 26.8646 65.9874C26.6806 65.6514 26.4366 65.3954 26.1326 65.2194C25.8286 65.0434 25.5006 64.9554 25.1486 64.9554C24.7966 64.9554 24.4686 65.0434 24.1646 65.2194C23.8606 65.3874 23.6126 65.6394 23.4206 65.9754C23.2366 66.3034 23.1446 66.6954 23.1446 67.1514C23.1446 67.6074 23.2366 68.0074 23.4206 68.3514C23.6126 68.6954 23.8606 68.9594 24.1646 69.1434C24.4766 69.3194 24.8046 69.4074 25.1486 69.4074C25.5006 69.4074 25.8286 69.3194 26.1326 69.1434C26.4366 68.9674 26.6806 68.7114 26.8646 68.3754C27.0566 68.0314 27.1526 67.6314 27.1526 67.1754ZM29.8734 67.1514C29.8734 66.4874 30.0094 65.8994 30.2814 65.3874C30.5614 64.8754 30.9374 64.4794 31.4094 64.1994C31.8894 63.9114 32.4174 63.7674 32.9934 63.7674C33.5134 63.7674 33.9654 63.8714 34.3494 64.0794C34.7414 64.2794 35.0534 64.5314 35.2854 64.8354V63.8754H36.6654V70.4874H35.2854V69.5034C35.0534 69.8154 34.7374 70.0754 34.3374 70.2834C33.9374 70.4914 33.4814 70.5954 32.9694 70.5954C32.4014 70.5954 31.8814 70.4514 31.4094 70.1634C30.9374 69.8674 30.5614 69.4594 30.2814 68.9394C30.0094 68.4114 29.8734 67.8154 29.8734 67.1514ZM35.2854 67.1754C35.2854 66.7194 35.1894 66.3234 34.9974 65.9874C34.8134 65.6514 34.5694 65.3954 34.2654 65.2194C33.9614 65.0434 33.6334 64.9554 33.2814 64.9554C32.9294 64.9554 32.6014 65.0434 32.2974 65.2194C31.9934 65.3874 31.7454 65.6394 31.5534 65.9754C31.3694 66.3034 31.2774 66.6954 31.2774 67.1514C31.2774 67.6074 31.3694 68.0074 31.5534 68.3514C31.7454 68.6954 31.9934 68.9594 32.2974 69.1434C32.6094 69.3194 32.9374 69.4074 33.2814 69.4074C33.6334 69.4074 33.9614 69.3194 34.2654 69.1434C34.5694 68.9674 34.8134 68.7114 34.9974 68.3754C35.1894 68.0314 35.2854 67.6314 35.2854 67.1754ZM44.4143 63.8754L40.3583 73.5954H38.9423L40.2863 70.3794L37.6823 63.8754H39.2063L41.0663 68.9154L42.9983 63.8754H44.4143ZM46.9466 68.8434L45.4946 72.1554H44.6066L45.4586 68.8434H46.9466ZM51.8351 68.6274C52.6031 67.9634 53.2071 67.4194 53.6471 66.9954C54.0951 66.5634 54.4671 66.1154 54.7631 65.6514C55.0591 65.1874 55.2071 64.7234 55.2071 64.2594C55.2071 63.7794 55.0911 63.4034 54.8591 63.1314C54.6351 62.8594 54.2791 62.7234 53.7911 62.7234C53.3191 62.7234 52.9511 62.8754 52.6871 63.1794C52.4311 63.4754 52.2951 63.8754 52.2791 64.3794H50.9591C50.9831 63.4674 51.2551 62.7714 51.7751 62.2914C52.3031 61.8034 52.9711 61.5594 53.7791 61.5594C54.6511 61.5594 55.3311 61.7994 55.8191 62.2794C56.3151 62.7594 56.5631 63.3994 56.5631 64.1994C56.5631 64.7754 56.4151 65.3314 56.1191 65.8674C55.8311 66.3954 55.4831 66.8714 55.0751 67.2954C54.6751 67.7114 54.1631 68.1954 53.5391 68.7474L52.9991 69.2274H56.8031V70.3674H50.9711V69.3714L51.8351 68.6274ZM58.7369 70.5714C58.4889 70.5714 58.2809 70.4874 58.1129 70.3194C57.9449 70.1514 57.8609 69.9434 57.8609 69.6954C57.8609 69.4474 57.9449 69.2394 58.1129 69.0714C58.2809 68.9034 58.4889 68.8194 58.7369 68.8194C58.9769 68.8194 59.1809 68.9034 59.3489 69.0714C59.5169 69.2394 59.6009 69.4474 59.6009 69.6954C59.6009 69.9434 59.5169 70.1514 59.3489 70.3194C59.1809 70.4874 58.9769 70.5714 58.7369 70.5714ZM58.7369 65.5314C58.4889 65.5314 58.2809 65.4474 58.1129 65.2794C57.9449 65.1114 57.8609 64.9034 57.8609 64.6554C57.8609 64.4074 57.9449 64.1994 58.1129 64.0314C58.2809 63.8634 58.4889 63.7794 58.7369 63.7794C58.9769 63.7794 59.1809 63.8634 59.3489 64.0314C59.5169 64.1994 59.6009 64.4074 59.6009 64.6554C59.6009 64.9034 59.5169 65.1114 59.3489 65.2794C59.1809 65.4474 58.9769 65.5314 58.7369 65.5314ZM60.9463 65.9994C60.9463 64.6154 61.1783 63.5354 61.6423 62.7594C62.1143 61.9754 62.9223 61.5834 64.0663 61.5834C65.2103 61.5834 66.0143 61.9754 66.4783 62.7594C66.9503 63.5354 67.1863 64.6154 67.1863 65.9994C67.1863 67.3994 66.9503 68.4954 66.4783 69.2874C66.0143 70.0714 65.2103 70.4634 64.0663 70.4634C62.9223 70.4634 62.1143 70.0714 61.6423 69.2874C61.1783 68.4954 60.9463 67.3994 60.9463 65.9994ZM65.8423 65.9994C65.8423 65.3514 65.7983 64.8034 65.7103 64.3554C65.6303 63.9074 65.4623 63.5434 65.2063 63.2634C64.9503 62.9754 64.5703 62.8314 64.0663 62.8314C63.5623 62.8314 63.1823 62.9754 62.9263 63.2634C62.6703 63.5434 62.4983 63.9074 62.4103 64.3554C62.3303 64.8034 62.2903 65.3514 62.2903 65.9994C62.2903 66.6714 62.3303 67.2354 62.4103 67.6914C62.4903 68.1474 62.6583 68.5154 62.9143 68.7954C63.1783 69.0754 63.5623 69.2154 64.0663 69.2154C64.5703 69.2154 64.9503 69.0754 65.2063 68.7954C65.4703 68.5154 65.6423 68.1474 65.7223 67.6914C65.8023 67.2354 65.8423 66.6714 65.8423 65.9994ZM68.4538 62.9874V61.7394H70.9498V70.4874H69.5698V62.9874H68.4538ZM74.3771 64.8474C74.6091 64.5434 74.9251 64.2874 75.3251 64.0794C75.7251 63.8714 76.1771 63.7674 76.6811 63.7674C77.2571 63.7674 77.7811 63.9114 78.2531 64.1994C78.7331 64.4794 79.1091 64.8754 79.3811 65.3874C79.6531 65.8994 79.7891 66.4874 79.7891 67.1514C79.7891 67.8154 79.6531 68.4114 79.3811 68.9394C79.1091 69.4594 78.7331 69.8674 78.2531 70.1634C77.7811 70.4514 77.2571 70.5954 76.6811 70.5954C76.1771 70.5954 75.7291 70.4954 75.3371 70.2954C74.9451 70.0874 74.6251 69.8314 74.3771 69.5274V73.6314H73.0091V63.8754H74.3771V64.8474ZM78.3971 67.1514C78.3971 66.6954 78.3011 66.3034 78.1091 65.9754C77.9251 65.6394 77.6771 65.3874 77.3651 65.2194C77.0611 65.0434 76.7331 64.9554 76.3811 64.9554C76.0371 64.9554 75.7091 65.0434 75.3971 65.2194C75.0931 65.3954 74.8451 65.6514 74.6531 65.9874C74.4691 66.3234 74.3771 66.7194 74.3771 67.1754C74.3771 67.6314 74.4691 68.0314 74.6531 68.3754C74.8451 68.7114 75.0931 68.9674 75.3971 69.1434C75.7091 69.3194 76.0371 69.4074 76.3811 69.4074C76.7331 69.4074 77.0611 69.3194 77.3651 69.1434C77.6771 68.9594 77.9251 68.6954 78.1091 68.3514C78.3011 68.0074 78.3971 67.6074 78.3971 67.1514ZM89.1459 63.7674C89.6659 63.7674 90.1299 63.8754 90.5379 64.0914C90.9539 64.3074 91.2779 64.6274 91.5099 65.0514C91.7499 65.4754 91.8699 65.9874 91.8699 66.5874V70.4874H90.5139V66.7914C90.5139 66.1994 90.3659 65.7474 90.0699 65.4354C89.7739 65.1154 89.3699 64.9554 88.8579 64.9554C88.3459 64.9554 87.9379 65.1154 87.6339 65.4354C87.3379 65.7474 87.1899 66.1994 87.1899 66.7914V70.4874H85.8339V66.7914C85.8339 66.1994 85.6859 65.7474 85.3899 65.4354C85.0939 65.1154 84.6899 64.9554 84.1779 64.9554C83.6659 64.9554 83.2579 65.1154 82.9539 65.4354C82.6579 65.7474 82.5099 66.1994 82.5099 66.7914V70.4874H81.1419V63.8754H82.5099V64.6314C82.7339 64.3594 83.0179 64.1474 83.3619 63.9954C83.7059 63.8434 84.0739 63.7674 84.4659 63.7674C84.9939 63.7674 85.4659 63.8794 85.8819 64.1034C86.2979 64.3274 86.6179 64.6514 86.8419 65.0754C87.0419 64.6754 87.3539 64.3594 87.7779 64.1274C88.2019 63.8874 88.6579 63.7674 89.1459 63.7674Z" fill="black" fill-opacity="0.25"/>
</svg>
