<svg width="134" height="76" viewBox="0 0 134 76" fill="none" xmlns="http://www.w3.org/2000/svg">
<rect width="125.77" height="50.3138" rx="10" transform="matrix(-1 0 0 1 126.491 0.51886)" fill="#1A66FF"/>
<path d="M125.756 34.3627C125.087 32.6833 122.71 32.6833 122.04 34.3627L116.569 48.0922C116.045 49.4056 117.013 50.8327 118.427 50.8327H129.37C130.784 50.8327 131.751 49.4056 131.228 48.0923L125.756 34.3627Z" fill="#1A66FF"/>
<path d="M47.1804 31.7124C46.4337 31.7124 45.7617 31.5844 45.1644 31.3284C44.5671 31.0617 44.0977 30.6884 43.7564 30.2084C43.4151 29.7284 43.2444 29.1684 43.2444 28.5284H45.1964C45.2391 29.0084 45.4257 29.4031 45.7564 29.7124C46.0977 30.0217 46.5724 30.1764 47.1804 30.1764C47.8097 30.1764 48.3004 30.0271 48.6524 29.7284C49.0044 29.4191 49.1804 29.0244 49.1804 28.5444C49.1804 28.1711 49.0684 27.8671 48.8444 27.6324C48.6311 27.3977 48.3591 27.2164 48.0284 27.0884C47.7084 26.9604 47.2604 26.8217 46.6844 26.6724C45.9591 26.4804 45.3671 26.2884 44.9084 26.0964C44.4604 25.8937 44.0764 25.5844 43.7564 25.1684C43.4364 24.7524 43.2764 24.1977 43.2764 23.5044C43.2764 22.8644 43.4364 22.3044 43.7564 21.8244C44.0764 21.3444 44.5244 20.9764 45.1004 20.7204C45.6764 20.4644 46.3431 20.3364 47.1004 20.3364C48.1777 20.3364 49.0577 20.6084 49.7404 21.1524C50.4337 21.6857 50.8177 22.4217 50.8924 23.3604H48.8764C48.8444 22.9551 48.6524 22.6084 48.3004 22.3204C47.9484 22.0324 47.4844 21.8884 46.9084 21.8884C46.3857 21.8884 45.9591 22.0217 45.6284 22.2884C45.2977 22.5551 45.1324 22.9391 45.1324 23.4404C45.1324 23.7817 45.2337 24.0644 45.4364 24.2884C45.6497 24.5017 45.9164 24.6724 46.2364 24.8004C46.5564 24.9284 46.9937 25.0671 47.5484 25.2164C48.2844 25.4191 48.8817 25.6217 49.3404 25.8244C49.8097 26.0271 50.2044 26.3417 50.5244 26.7684C50.8551 27.1844 51.0204 27.7444 51.0204 28.4484C51.0204 29.0137 50.8657 29.5471 50.5564 30.0484C50.2577 30.5497 49.8151 30.9551 49.2284 31.2644C48.6524 31.5631 47.9697 31.7124 47.1804 31.7124ZM61.1567 22.7844V31.6004H59.3327V30.5604C59.0447 30.9231 58.666 31.2111 58.1967 31.4244C57.738 31.6271 57.2473 31.7284 56.7247 31.7284C56.0313 31.7284 55.4073 31.5844 54.8527 31.2964C54.3087 31.0084 53.8767 30.5817 53.5567 30.0164C53.2473 29.4511 53.0927 28.7684 53.0927 27.9684V22.7844H54.9007V27.6964C54.9007 28.4857 55.098 29.0937 55.4927 29.5204C55.8873 29.9364 56.426 30.1444 57.1087 30.1444C57.7913 30.1444 58.33 29.9364 58.7247 29.5204C59.13 29.0937 59.3327 28.4857 59.3327 27.6964V22.7844H61.1567ZM65.3873 24.0644C65.6539 23.6164 66.0059 23.2697 66.4433 23.0244C66.8913 22.7684 67.4193 22.6404 68.0273 22.6404V24.5284H67.5633C66.8486 24.5284 66.3046 24.7097 65.9313 25.0724C65.5686 25.4351 65.3873 26.0644 65.3873 26.9604V31.6004H63.5633V22.7844H65.3873V24.0644ZM77.7839 26.9764C77.7839 27.3071 77.7626 27.6057 77.7199 27.8724H70.9839C71.0372 28.5764 71.2986 29.1417 71.7679 29.5684C72.2372 29.9951 72.8132 30.2084 73.4959 30.2084C74.4772 30.2084 75.1706 29.7977 75.5759 28.9764H77.5439C77.2772 29.7871 76.7919 30.4537 76.0879 30.9764C75.3946 31.4884 74.5306 31.7444 73.4959 31.7444C72.6532 31.7444 71.8959 31.5577 71.2239 31.1844C70.5626 30.8004 70.0399 30.2671 69.6559 29.5844C69.2826 28.8911 69.0959 28.0911 69.0959 27.1844C69.0959 26.2777 69.2772 25.4831 69.6399 24.8004C70.0132 24.1071 70.5306 23.5737 71.1919 23.2004C71.8639 22.8271 72.6319 22.6404 73.4959 22.6404C74.3279 22.6404 75.0692 22.8217 75.7199 23.1844C76.3706 23.5471 76.8772 24.0591 77.2399 24.7204C77.6026 25.3711 77.7839 26.1231 77.7839 26.9764ZM75.8799 26.4004C75.8692 25.7284 75.6292 25.1897 75.1599 24.7844C74.6906 24.3791 74.1092 24.1764 73.4159 24.1764C72.7866 24.1764 72.2479 24.3791 71.7999 24.7844C71.3519 25.1791 71.0852 25.7177 70.9999 26.4004H75.8799ZM81.8669 20.4804L81.6589 28.2404H80.1389L79.9309 20.4804H81.8669ZM80.9549 31.7124C80.6242 31.7124 80.3469 31.6004 80.1229 31.3764C79.8989 31.1524 79.7869 30.8751 79.7869 30.5444C79.7869 30.2137 79.8989 29.9364 80.1229 29.7124C80.3469 29.4884 80.6242 29.3764 80.9549 29.3764C81.2749 29.3764 81.5469 29.4884 81.7709 29.7124C81.9949 29.9364 82.1069 30.2137 82.1069 30.5444C82.1069 30.8751 81.9949 31.1524 81.7709 31.3764C81.5469 31.6004 81.2749 31.7124 80.9549 31.7124Z" fill="white"/>
<path d="M43.5318 62.5366V63.6526H41.3118V70.8766H39.9438V63.6526H37.7118V62.5366H43.5318ZM47.7852 70.9846C47.1612 70.9846 46.5972 70.8446 46.0932 70.5646C45.5892 70.2766 45.1932 69.8766 44.9052 69.3646C44.6172 68.8446 44.4732 68.2446 44.4732 67.5646C44.4732 66.8926 44.6212 66.2966 44.9172 65.7766C45.2132 65.2566 45.6172 64.8566 46.1292 64.5766C46.6412 64.2966 47.2132 64.1566 47.8452 64.1566C48.4772 64.1566 49.0492 64.2966 49.5612 64.5766C50.0732 64.8566 50.4772 65.2566 50.7732 65.7766C51.0692 66.2966 51.2172 66.8926 51.2172 67.5646C51.2172 68.2366 51.0652 68.8326 50.7612 69.3526C50.4572 69.8726 50.0412 70.2766 49.5132 70.5646C48.9932 70.8446 48.4172 70.9846 47.7852 70.9846ZM47.7852 69.7966C48.1372 69.7966 48.4652 69.7126 48.7692 69.5446C49.0812 69.3766 49.3332 69.1246 49.5252 68.7886C49.7172 68.4526 49.8132 68.0446 49.8132 67.5646C49.8132 67.0846 49.7212 66.6806 49.5372 66.3526C49.3532 66.0166 49.1092 65.7646 48.8052 65.5966C48.5012 65.4286 48.1732 65.3446 47.8212 65.3446C47.4692 65.3446 47.1412 65.4286 46.8372 65.5966C46.5412 65.7646 46.3052 66.0166 46.1292 66.3526C45.9532 66.6806 45.8652 67.0846 45.8652 67.5646C45.8652 68.2766 46.0452 68.8286 46.4052 69.2206C46.7732 69.6046 47.2332 69.7966 47.7852 69.7966ZM52.1136 67.5406C52.1136 66.8766 52.2496 66.2886 52.5216 65.7766C52.8016 65.2646 53.1776 64.8686 53.6496 64.5886C54.1296 64.3006 54.6616 64.1566 55.2456 64.1566C55.6776 64.1566 56.1016 64.2526 56.5176 64.4446C56.9416 64.6286 57.2776 64.8766 57.5256 65.1886V61.9966H58.9056V70.8766H57.5256V69.8806C57.3016 70.2006 56.9896 70.4646 56.5896 70.6726C56.1976 70.8806 55.7456 70.9846 55.2336 70.9846C54.6576 70.9846 54.1296 70.8406 53.6496 70.5526C53.1776 70.2566 52.8016 69.8486 52.5216 69.3286C52.2496 68.8006 52.1136 68.2046 52.1136 67.5406ZM57.5256 67.5646C57.5256 67.1086 57.4296 66.7126 57.2376 66.3766C57.0536 66.0406 56.8096 65.7846 56.5056 65.6086C56.2016 65.4326 55.8736 65.3446 55.5216 65.3446C55.1696 65.3446 54.8416 65.4326 54.5376 65.6086C54.2336 65.7766 53.9856 66.0286 53.7936 66.3646C53.6096 66.6926 53.5176 67.0846 53.5176 67.5406C53.5176 67.9966 53.6096 68.3966 53.7936 68.7406C53.9856 69.0846 54.2336 69.3486 54.5376 69.5326C54.8496 69.7086 55.1776 69.7966 55.5216 69.7966C55.8736 69.7966 56.2016 69.7086 56.5056 69.5326C56.8096 69.3566 57.0536 69.1006 57.2376 68.7646C57.4296 68.4206 57.5256 68.0206 57.5256 67.5646ZM60.2464 67.5406C60.2464 66.8766 60.3824 66.2886 60.6544 65.7766C60.9344 65.2646 61.3104 64.8686 61.7824 64.5886C62.2624 64.3006 62.7904 64.1566 63.3664 64.1566C63.8864 64.1566 64.3384 64.2606 64.7224 64.4686C65.1144 64.6686 65.4264 64.9206 65.6584 65.2246V64.2646H67.0384V70.8766H65.6584V69.8926C65.4264 70.2046 65.1104 70.4646 64.7104 70.6726C64.3104 70.8806 63.8544 70.9846 63.3424 70.9846C62.7744 70.9846 62.2544 70.8406 61.7824 70.5526C61.3104 70.2566 60.9344 69.8486 60.6544 69.3286C60.3824 68.8006 60.2464 68.2046 60.2464 67.5406ZM65.6584 67.5646C65.6584 67.1086 65.5624 66.7126 65.3704 66.3766C65.1864 66.0406 64.9424 65.7846 64.6384 65.6086C64.3344 65.4326 64.0064 65.3446 63.6544 65.3446C63.3024 65.3446 62.9744 65.4326 62.6704 65.6086C62.3664 65.7766 62.1184 66.0286 61.9264 66.3646C61.7424 66.6926 61.6504 67.0846 61.6504 67.5406C61.6504 67.9966 61.7424 68.3966 61.9264 68.7406C62.1184 69.0846 62.3664 69.3486 62.6704 69.5326C62.9824 69.7086 63.3104 69.7966 63.6544 69.7966C64.0064 69.7966 64.3344 69.7086 64.6384 69.5326C64.9424 69.3566 65.1864 69.1006 65.3704 68.7646C65.5624 68.4206 65.6584 68.0206 65.6584 67.5646ZM74.7872 64.2646L70.7312 73.9846H69.3152L70.6592 70.7686L68.0552 64.2646H69.5792L71.4392 69.3046L73.3712 64.2646H74.7872ZM77.3196 69.2326L75.8676 72.5446H74.9796L75.8316 69.2326H77.3196ZM82.2081 69.0166C82.9761 68.3526 83.5801 67.8086 84.0201 67.3846C84.4681 66.9526 84.8401 66.5046 85.1361 66.0406C85.4321 65.5766 85.5801 65.1126 85.5801 64.6486C85.5801 64.1686 85.4641 63.7926 85.2321 63.5206C85.0081 63.2486 84.6521 63.1126 84.1641 63.1126C83.6921 63.1126 83.3241 63.2646 83.0601 63.5686C82.8041 63.8646 82.6681 64.2646 82.6521 64.7686H81.3321C81.3561 63.8566 81.6281 63.1606 82.1481 62.6806C82.6761 62.1926 83.3441 61.9486 84.1521 61.9486C85.0241 61.9486 85.7041 62.1886 86.1921 62.6686C86.6881 63.1486 86.9361 63.7886 86.9361 64.5886C86.9361 65.1646 86.7881 65.7206 86.4921 66.2566C86.2041 66.7846 85.8561 67.2606 85.4481 67.6846C85.0481 68.1006 84.5361 68.5846 83.9121 69.1366L83.3721 69.6166H87.1761V70.7566H81.3441V69.7606L82.2081 69.0166ZM89.1098 70.9606C88.8618 70.9606 88.6538 70.8766 88.4858 70.7086C88.3178 70.5406 88.2338 70.3326 88.2338 70.0846C88.2338 69.8366 88.3178 69.6286 88.4858 69.4606C88.6538 69.2926 88.8618 69.2086 89.1098 69.2086C89.3498 69.2086 89.5538 69.2926 89.7218 69.4606C89.8898 69.6286 89.9738 69.8366 89.9738 70.0846C89.9738 70.3326 89.8898 70.5406 89.7218 70.7086C89.5538 70.8766 89.3498 70.9606 89.1098 70.9606ZM89.1098 65.9206C88.8618 65.9206 88.6538 65.8366 88.4858 65.6686C88.3178 65.5006 88.2338 65.2926 88.2338 65.0446C88.2338 64.7966 88.3178 64.5886 88.4858 64.4206C88.6538 64.2526 88.8618 64.1686 89.1098 64.1686C89.3498 64.1686 89.5538 64.2526 89.7218 64.4206C89.8898 64.5886 89.9738 64.7966 89.9738 65.0446C89.9738 65.2926 89.8898 65.5006 89.7218 65.6686C89.5538 65.8366 89.3498 65.9206 89.1098 65.9206ZM91.1392 63.3766V62.1286H93.6352V70.8766H92.2552V63.3766H91.1392ZM95.3466 69.0526V68.0206L99.3786 62.2366H101.035V67.8646H102.151V69.0526H101.035V70.8766H99.6906V69.0526H95.3466ZM99.7506 63.6286L96.9186 67.8646H99.7506V63.6286ZM104.832 65.2366C105.064 64.9326 105.38 64.6766 105.78 64.4686C106.18 64.2606 106.632 64.1566 107.136 64.1566C107.712 64.1566 108.236 64.3006 108.708 64.5886C109.188 64.8686 109.564 65.2646 109.836 65.7766C110.108 66.2886 110.244 66.8766 110.244 67.5406C110.244 68.2046 110.108 68.8006 109.836 69.3286C109.564 69.8486 109.188 70.2566 108.708 70.5526C108.236 70.8406 107.712 70.9846 107.136 70.9846C106.632 70.9846 106.184 70.8846 105.792 70.6846C105.4 70.4766 105.08 70.2206 104.832 69.9166V74.0206H103.464V64.2646H104.832V65.2366ZM108.852 67.5406C108.852 67.0846 108.756 66.6926 108.564 66.3646C108.38 66.0286 108.132 65.7766 107.82 65.6086C107.516 65.4326 107.188 65.3446 106.836 65.3446C106.492 65.3446 106.164 65.4326 105.852 65.6086C105.548 65.7846 105.3 66.0406 105.108 66.3766C104.924 66.7126 104.832 67.1086 104.832 67.5646C104.832 68.0206 104.924 68.4206 105.108 68.7646C105.3 69.1006 105.548 69.3566 105.852 69.5326C106.164 69.7086 106.492 69.7966 106.836 69.7966C107.188 69.7966 107.516 69.7086 107.82 69.5326C108.132 69.3486 108.38 69.0846 108.564 68.7406C108.756 68.3966 108.852 67.9966 108.852 67.5406ZM119.601 64.1566C120.121 64.1566 120.585 64.2646 120.993 64.4806C121.409 64.6966 121.733 65.0166 121.965 65.4406C122.205 65.8646 122.325 66.3766 122.325 66.9766V70.8766H120.969V67.1806C120.969 66.5886 120.821 66.1366 120.525 65.8246C120.229 65.5046 119.825 65.3446 119.313 65.3446C118.801 65.3446 118.393 65.5046 118.089 65.8246C117.793 66.1366 117.645 66.5886 117.645 67.1806V70.8766H116.289V67.1806C116.289 66.5886 116.141 66.1366 115.845 65.8246C115.549 65.5046 115.145 65.3446 114.633 65.3446C114.121 65.3446 113.713 65.5046 113.409 65.8246C113.113 66.1366 112.965 66.5886 112.965 67.1806V70.8766H111.597V64.2646H112.965V65.0206C113.189 64.7486 113.473 64.5366 113.817 64.3846C114.161 64.2326 114.529 64.1566 114.921 64.1566C115.449 64.1566 115.921 64.2686 116.337 64.4926C116.753 64.7166 117.073 65.0406 117.297 65.4646C117.497 65.0646 117.809 64.7486 118.233 64.5166C118.657 64.2766 119.113 64.1566 119.601 64.1566Z" fill="black" fill-opacity="0.25"/>
</svg>
