<svg width="134" height="77" viewBox="0 0 134 77" fill="none" xmlns="http://www.w3.org/2000/svg">
<rect width="125.77" height="50.3138" rx="10" transform="matrix(-1 0 0 1 126.491 0.604614)" fill="#1A66FF"/>
<path d="M125.756 34.4485C125.087 32.7691 122.71 32.769 122.04 34.4485L116.569 48.178C116.045 49.4914 117.013 50.9184 118.427 50.9184H129.37C130.784 50.9184 131.751 49.4914 131.228 48.178L125.756 34.4485Z" fill="#1A66FF"/>
<path d="M47.3238 18.5536V29.6736H45.4998V24.8096H40.2678V29.6736H38.4438V18.5536H40.2678V23.3216H45.4998V18.5536H47.3238ZM57.805 25.0496C57.805 25.3803 57.7837 25.679 57.741 25.9456H51.005C51.0584 26.6496 51.3197 27.215 51.789 27.6416C52.2584 28.0683 52.8344 28.2816 53.517 28.2816C54.4984 28.2816 55.1917 27.871 55.597 27.0496H57.565C57.2984 27.8603 56.813 28.527 56.109 29.0496C55.4157 29.5616 54.5517 29.8176 53.517 29.8176C52.6744 29.8176 51.917 29.631 51.245 29.2576C50.5837 28.8736 50.061 28.3403 49.677 27.6576C49.3037 26.9643 49.117 26.1643 49.117 25.2576C49.117 24.351 49.2984 23.5563 49.661 22.8736C50.0344 22.1803 50.5517 21.647 51.213 21.2736C51.885 20.9003 52.653 20.7136 53.517 20.7136C54.349 20.7136 55.0904 20.895 55.741 21.2576C56.3917 21.6203 56.8984 22.1323 57.261 22.7936C57.6237 23.4443 57.805 24.1963 57.805 25.0496ZM55.901 24.4736C55.8904 23.8016 55.6504 23.263 55.181 22.8576C54.7117 22.4523 54.1304 22.2496 53.437 22.2496C52.8077 22.2496 52.269 22.4523 51.821 22.8576C51.373 23.2523 51.1064 23.791 51.021 24.4736H55.901ZM61.424 17.8336V29.6736H59.6V17.8336H61.424ZM65.6428 17.8336V29.6736H63.8188V17.8336H65.6428ZM71.8615 29.8176C71.0295 29.8176 70.2775 29.631 69.6055 29.2576C68.9335 28.8736 68.4055 28.3403 68.0215 27.6576C67.6375 26.9643 67.4455 26.1643 67.4455 25.2576C67.4455 24.3616 67.6429 23.567 68.0375 22.8736C68.4322 22.1803 68.9709 21.647 69.6535 21.2736C70.3362 20.9003 71.0989 20.7136 71.9415 20.7136C72.7842 20.7136 73.5469 20.9003 74.2295 21.2736C74.9122 21.647 75.4509 22.1803 75.8455 22.8736C76.2402 23.567 76.4375 24.3616 76.4375 25.2576C76.4375 26.1536 76.2349 26.9483 75.8295 27.6416C75.4242 28.335 74.8695 28.8736 74.1655 29.2576C73.4722 29.631 72.7042 29.8176 71.8615 29.8176ZM71.8615 28.2336C72.3309 28.2336 72.7682 28.1216 73.1735 27.8976C73.5895 27.6736 73.9255 27.3376 74.1815 26.8896C74.4375 26.4416 74.5655 25.8976 74.5655 25.2576C74.5655 24.6176 74.4429 24.079 74.1975 23.6416C73.9522 23.1936 73.6269 22.8576 73.2215 22.6336C72.8162 22.4096 72.3789 22.2976 71.9095 22.2976C71.4402 22.2976 71.0029 22.4096 70.5975 22.6336C70.2029 22.8576 69.8882 23.1936 69.6535 23.6416C69.4189 24.079 69.3015 24.6176 69.3015 25.2576C69.3015 26.207 69.5415 26.943 70.0215 27.4656C70.5122 27.9776 71.1255 28.2336 71.8615 28.2336ZM78.9766 29.7856C78.646 29.7856 78.3686 29.6736 78.1446 29.4496C77.9206 29.2256 77.8086 28.9483 77.8086 28.6176C77.8086 28.287 77.9206 28.0096 78.1446 27.7856C78.3686 27.5616 78.646 27.4496 78.9766 27.4496C79.2966 27.4496 79.5686 27.5616 79.7926 27.7856C80.0166 28.0096 80.1286 28.287 80.1286 28.6176C80.1286 28.9483 80.0166 29.2256 79.7926 29.4496C79.5686 29.6736 79.2966 29.7856 78.9766 29.7856ZM82.836 29.7856C82.5054 29.7856 82.228 29.6736 82.004 29.4496C81.78 29.2256 81.668 28.9483 81.668 28.6176C81.668 28.287 81.78 28.0096 82.004 27.7856C82.228 27.5616 82.5054 27.4496 82.836 27.4496C83.156 27.4496 83.428 27.5616 83.652 27.7856C83.876 28.0096 83.988 28.287 83.988 28.6176C83.988 28.9483 83.876 29.2256 83.652 29.4496C83.428 29.6736 83.156 29.7856 82.836 29.7856ZM86.6954 29.7856C86.3647 29.7856 86.0874 29.6736 85.8634 29.4496C85.6394 29.2256 85.5274 28.9483 85.5274 28.6176C85.5274 28.287 85.6394 28.0096 85.8634 27.7856C86.0874 27.5616 86.3647 27.4496 86.6954 27.4496C87.0154 27.4496 87.2874 27.5616 87.5114 27.7856C87.7354 28.0096 87.8474 28.287 87.8474 28.6176C87.8474 28.9483 87.7354 29.2256 87.5114 29.4496C87.2874 29.6736 87.0154 29.7856 86.6954 29.7856Z" fill="white"/>
<path d="M43.5318 62.6223V63.7383H41.3118V70.9623H39.9438V63.7383H37.7118V62.6223H43.5318ZM47.7852 71.0703C47.1612 71.0703 46.5972 70.9303 46.0932 70.6503C45.5892 70.3623 45.1932 69.9623 44.9052 69.4503C44.6172 68.9303 44.4732 68.3303 44.4732 67.6503C44.4732 66.9783 44.6212 66.3823 44.9172 65.8623C45.2132 65.3423 45.6172 64.9423 46.1292 64.6623C46.6412 64.3823 47.2132 64.2423 47.8452 64.2423C48.4772 64.2423 49.0492 64.3823 49.5612 64.6623C50.0732 64.9423 50.4772 65.3423 50.7732 65.8623C51.0692 66.3823 51.2172 66.9783 51.2172 67.6503C51.2172 68.3223 51.0652 68.9183 50.7612 69.4383C50.4572 69.9583 50.0412 70.3623 49.5132 70.6503C48.9932 70.9303 48.4172 71.0703 47.7852 71.0703ZM47.7852 69.8823C48.1372 69.8823 48.4652 69.7983 48.7692 69.6303C49.0812 69.4623 49.3332 69.2103 49.5252 68.8743C49.7172 68.5383 49.8132 68.1303 49.8132 67.6503C49.8132 67.1703 49.7212 66.7663 49.5372 66.4383C49.3532 66.1023 49.1092 65.8503 48.8052 65.6823C48.5012 65.5143 48.1732 65.4303 47.8212 65.4303C47.4692 65.4303 47.1412 65.5143 46.8372 65.6823C46.5412 65.8503 46.3052 66.1023 46.1292 66.4383C45.9532 66.7663 45.8652 67.1703 45.8652 67.6503C45.8652 68.3623 46.0452 68.9143 46.4052 69.3063C46.7732 69.6903 47.2332 69.8823 47.7852 69.8823ZM52.1136 67.6263C52.1136 66.9623 52.2496 66.3743 52.5216 65.8623C52.8016 65.3503 53.1776 64.9543 53.6496 64.6743C54.1296 64.3863 54.6616 64.2423 55.2456 64.2423C55.6776 64.2423 56.1016 64.3383 56.5176 64.5303C56.9416 64.7143 57.2776 64.9623 57.5256 65.2743V62.0823H58.9056V70.9623H57.5256V69.9663C57.3016 70.2863 56.9896 70.5503 56.5896 70.7583C56.1976 70.9663 55.7456 71.0703 55.2336 71.0703C54.6576 71.0703 54.1296 70.9263 53.6496 70.6383C53.1776 70.3423 52.8016 69.9343 52.5216 69.4143C52.2496 68.8863 52.1136 68.2903 52.1136 67.6263ZM57.5256 67.6503C57.5256 67.1943 57.4296 66.7983 57.2376 66.4623C57.0536 66.1263 56.8096 65.8703 56.5056 65.6943C56.2016 65.5183 55.8736 65.4303 55.5216 65.4303C55.1696 65.4303 54.8416 65.5183 54.5376 65.6943C54.2336 65.8623 53.9856 66.1143 53.7936 66.4503C53.6096 66.7783 53.5176 67.1703 53.5176 67.6263C53.5176 68.0823 53.6096 68.4823 53.7936 68.8263C53.9856 69.1703 54.2336 69.4343 54.5376 69.6183C54.8496 69.7943 55.1776 69.8823 55.5216 69.8823C55.8736 69.8823 56.2016 69.7943 56.5056 69.6183C56.8096 69.4423 57.0536 69.1863 57.2376 68.8503C57.4296 68.5063 57.5256 68.1063 57.5256 67.6503ZM60.2464 67.6263C60.2464 66.9623 60.3824 66.3743 60.6544 65.8623C60.9344 65.3503 61.3104 64.9543 61.7824 64.6743C62.2624 64.3863 62.7904 64.2423 63.3664 64.2423C63.8864 64.2423 64.3384 64.3463 64.7224 64.5543C65.1144 64.7543 65.4264 65.0063 65.6584 65.3103V64.3503H67.0384V70.9623H65.6584V69.9783C65.4264 70.2903 65.1104 70.5503 64.7104 70.7583C64.3104 70.9663 63.8544 71.0703 63.3424 71.0703C62.7744 71.0703 62.2544 70.9263 61.7824 70.6383C61.3104 70.3423 60.9344 69.9343 60.6544 69.4143C60.3824 68.8863 60.2464 68.2903 60.2464 67.6263ZM65.6584 67.6503C65.6584 67.1943 65.5624 66.7983 65.3704 66.4623C65.1864 66.1263 64.9424 65.8703 64.6384 65.6943C64.3344 65.5183 64.0064 65.4303 63.6544 65.4303C63.3024 65.4303 62.9744 65.5183 62.6704 65.6943C62.3664 65.8623 62.1184 66.1143 61.9264 66.4503C61.7424 66.7783 61.6504 67.1703 61.6504 67.6263C61.6504 68.0823 61.7424 68.4823 61.9264 68.8263C62.1184 69.1703 62.3664 69.4343 62.6704 69.6183C62.9824 69.7943 63.3104 69.8823 63.6544 69.8823C64.0064 69.8823 64.3344 69.7943 64.6384 69.6183C64.9424 69.4423 65.1864 69.1863 65.3704 68.8503C65.5624 68.5063 65.6584 68.1063 65.6584 67.6503ZM74.7872 64.3503L70.7312 74.0703H69.3152L70.6592 70.8543L68.0552 64.3503H69.5792L71.4392 69.3903L73.3712 64.3503H74.7872ZM77.3196 69.3183L75.8676 72.6303H74.9796L75.8316 69.3183H77.3196ZM82.2081 69.1023C82.9761 68.4383 83.5801 67.8943 84.0201 67.4703C84.4681 67.0383 84.8401 66.5903 85.1361 66.1263C85.4321 65.6623 85.5801 65.1983 85.5801 64.7343C85.5801 64.2543 85.4641 63.8783 85.2321 63.6063C85.0081 63.3343 84.6521 63.1983 84.1641 63.1983C83.6921 63.1983 83.3241 63.3503 83.0601 63.6543C82.8041 63.9503 82.6681 64.3503 82.6521 64.8543H81.3321C81.3561 63.9423 81.6281 63.2463 82.1481 62.7663C82.6761 62.2783 83.3441 62.0343 84.1521 62.0343C85.0241 62.0343 85.7041 62.2743 86.1921 62.7543C86.6881 63.2343 86.9361 63.8743 86.9361 64.6743C86.9361 65.2503 86.7881 65.8063 86.4921 66.3423C86.2041 66.8703 85.8561 67.3463 85.4481 67.7703C85.0481 68.1863 84.5361 68.6703 83.9121 69.2223L83.3721 69.7023H87.1761V70.8423H81.3441V69.8463L82.2081 69.1023ZM89.1098 71.0463C88.8618 71.0463 88.6538 70.9623 88.4858 70.7943C88.3178 70.6263 88.2338 70.4183 88.2338 70.1703C88.2338 69.9223 88.3178 69.7143 88.4858 69.5463C88.6538 69.3783 88.8618 69.2943 89.1098 69.2943C89.3498 69.2943 89.5538 69.3783 89.7218 69.5463C89.8898 69.7143 89.9738 69.9223 89.9738 70.1703C89.9738 70.4183 89.8898 70.6263 89.7218 70.7943C89.5538 70.9623 89.3498 71.0463 89.1098 71.0463ZM89.1098 66.0063C88.8618 66.0063 88.6538 65.9223 88.4858 65.7543C88.3178 65.5863 88.2338 65.3783 88.2338 65.1303C88.2338 64.8823 88.3178 64.6743 88.4858 64.5063C88.6538 64.3383 88.8618 64.2543 89.1098 64.2543C89.3498 64.2543 89.5538 64.3383 89.7218 64.5063C89.8898 64.6743 89.9738 64.8823 89.9738 65.1303C89.9738 65.3783 89.8898 65.5863 89.7218 65.7543C89.5538 65.9223 89.3498 66.0063 89.1098 66.0063ZM91.1392 63.4623V62.2143H93.6352V70.9623H92.2552V63.4623H91.1392ZM96.2706 69.1023C97.0386 68.4383 97.6426 67.8943 98.0826 67.4703C98.5306 67.0383 98.9026 66.5903 99.1986 66.1263C99.4946 65.6623 99.6426 65.1983 99.6426 64.7343C99.6426 64.2543 99.5266 63.8783 99.2946 63.6063C99.0706 63.3343 98.7146 63.1983 98.2266 63.1983C97.7546 63.1983 97.3866 63.3503 97.1226 63.6543C96.8666 63.9503 96.7306 64.3503 96.7146 64.8543H95.3946C95.4186 63.9423 95.6906 63.2463 96.2106 62.7663C96.7386 62.2783 97.4066 62.0343 98.2146 62.0343C99.0866 62.0343 99.7666 62.2743 100.255 62.7543C100.751 63.2343 100.999 63.8743 100.999 64.6743C100.999 65.2503 100.851 65.8063 100.555 66.3423C100.267 66.8703 99.9186 67.3463 99.5106 67.7703C99.1106 68.1863 98.5986 68.6703 97.9746 69.2223L97.4346 69.7023H101.239V70.8423H95.4066V69.8463L96.2706 69.1023ZM103.988 65.3223C104.22 65.0183 104.536 64.7623 104.936 64.5543C105.336 64.3463 105.788 64.2423 106.292 64.2423C106.868 64.2423 107.392 64.3863 107.864 64.6743C108.344 64.9543 108.72 65.3503 108.992 65.8623C109.264 66.3743 109.4 66.9623 109.4 67.6263C109.4 68.2903 109.264 68.8863 108.992 69.4143C108.72 69.9343 108.344 70.3423 107.864 70.6383C107.392 70.9263 106.868 71.0703 106.292 71.0703C105.788 71.0703 105.34 70.9703 104.948 70.7703C104.556 70.5623 104.236 70.3063 103.988 70.0023V74.1063H102.62V64.3503H103.988V65.3223ZM108.008 67.6263C108.008 67.1703 107.912 66.7783 107.72 66.4503C107.536 66.1143 107.288 65.8623 106.976 65.6943C106.672 65.5183 106.344 65.4303 105.992 65.4303C105.648 65.4303 105.32 65.5183 105.008 65.6943C104.704 65.8703 104.456 66.1263 104.264 66.4623C104.08 66.7983 103.988 67.1943 103.988 67.6503C103.988 68.1063 104.08 68.5063 104.264 68.8503C104.456 69.1863 104.704 69.4423 105.008 69.6183C105.32 69.7943 105.648 69.8823 105.992 69.8823C106.344 69.8823 106.672 69.7943 106.976 69.6183C107.288 69.4343 107.536 69.1703 107.72 68.8263C107.912 68.4823 108.008 68.0823 108.008 67.6263ZM118.757 64.2423C119.277 64.2423 119.741 64.3503 120.149 64.5663C120.565 64.7823 120.889 65.1023 121.121 65.5263C121.361 65.9503 121.481 66.4623 121.481 67.0623V70.9623H120.125V67.2663C120.125 66.6743 119.977 66.2223 119.681 65.9103C119.385 65.5903 118.981 65.4303 118.469 65.4303C117.957 65.4303 117.549 65.5903 117.245 65.9103C116.949 66.2223 116.801 66.6743 116.801 67.2663V70.9623H115.445V67.2663C115.445 66.6743 115.297 66.2223 115.001 65.9103C114.705 65.5903 114.301 65.4303 113.789 65.4303C113.277 65.4303 112.869 65.5903 112.565 65.9103C112.269 66.2223 112.121 66.6743 112.121 67.2663V70.9623H110.753V64.3503H112.121V65.1063C112.345 64.8343 112.629 64.6223 112.973 64.4703C113.317 64.3183 113.685 64.2423 114.077 64.2423C114.605 64.2423 115.077 64.3543 115.493 64.5783C115.909 64.8023 116.229 65.1263 116.453 65.5503C116.653 65.1503 116.965 64.8343 117.389 64.6023C117.813 64.3623 118.269 64.2423 118.757 64.2423Z" fill="black" fill-opacity="0.25"/>
</svg>

