<svg width="21" height="21" viewBox="0 0 21 21" fill="none" xmlns="http://www.w3.org/2000/svg">
<path d="M18.4285 14.0631L15.5596 13.7382C15.2222 13.6989 14.8803 13.736 14.5595 13.8466C14.2386 13.9572 13.9472 14.1385 13.7072 14.3768L11.6289 16.4383C8.42237 14.8207 5.81611 12.2356 4.18534 9.05519L6.27494 6.98255C6.76064 6.5008 6.99783 5.82859 6.91877 5.14518L6.59121 2.32191C6.52717 1.77538 6.26274 1.27129 5.84825 0.905623C5.43377 0.539955 4.89818 0.338245 4.34347 0.338899H2.3894C1.11305 0.338899 0.0513038 1.39202 0.13037 2.65801C0.729014 12.2258 8.44362 19.8665 18.0784 20.4603C19.3548 20.5387 20.4165 19.4856 20.4165 18.2196V16.2814C20.4278 15.1499 19.5694 14.1976 18.4285 14.0631Z" fill="#1A66FF"/>
</svg>
