<svg width="16" height="16" viewBox="0 0 16 16" fill="none" xmlns="http://www.w3.org/2000/svg">
<path d="M8.27218 14.749C6.50644 14.749 4.81301 14.0533 3.56445 12.8148C2.31588 11.5764 1.61444 9.89674 1.61444 8.14534C1.61444 6.39393 2.31588 4.71426 3.56445 3.47583C4.81301 2.23739 6.50644 1.54165 8.27218 1.54165C10.0379 1.54165 11.7314 2.23739 12.9799 3.47583C14.2285 4.71426 14.9299 6.39393 14.9299 8.14534C14.9299 9.89674 14.2285 11.5764 12.9799 12.8148C11.7314 14.0533 10.0379 14.749 8.27218 14.749ZM8.27218 15.6924C10.2902 15.6924 12.2255 14.8973 13.6525 13.4819C15.0794 12.0666 15.881 10.1469 15.881 8.14534C15.881 6.14373 15.0794 4.2241 13.6525 2.80875C12.2255 1.3934 10.2902 0.598267 8.27218 0.598267C6.25419 0.598267 4.31885 1.3934 2.89191 2.80875C1.46497 4.2241 0.66333 6.14373 0.66333 8.14534C0.66333 10.1469 1.46497 12.0666 2.89191 13.4819C4.31885 14.8973 6.25419 15.6924 8.27218 15.6924Z" fill="white" fill-opacity="0.5"/>
<path d="M12.3914 9.56041C12.4749 9.70383 12.5189 9.86651 12.5189 10.0321C12.5189 10.1977 12.4749 10.3604 12.3914 10.5038C11.9741 11.2211 11.3737 11.8167 10.6506 12.2308C9.92747 12.6448 9.10716 12.8626 8.27221 12.8623C7.43742 12.8624 6.6173 12.6445 5.89436 12.2305C5.17142 11.8165 4.57114 11.221 4.15391 10.5038C4.07048 10.3605 4.02653 10.1979 4.02649 10.0323C4.02645 9.86683 4.07031 9.70422 4.15367 9.56083C4.23703 9.41745 4.35696 9.29834 4.50141 9.21547C4.64586 9.1326 4.80975 9.08889 4.97662 9.08872H11.5678C11.7347 9.08873 11.8987 9.13232 12.0433 9.21512C12.1879 9.29792 12.308 9.417 12.3914 9.56041ZM7.3211 6.73026C7.3211 7.51138 6.895 6.73026 6.36999 6.73026C5.84498 6.73026 5.41889 7.51138 5.41889 6.73026C5.41889 5.94914 5.84498 5.31519 6.36999 5.31519C6.895 5.31519 7.3211 5.94914 7.3211 6.73026ZM11.1255 6.73026C11.1255 7.51138 10.6994 6.73026 10.1744 6.73026C9.64941 6.73026 9.22331 7.51138 9.22331 6.73026C9.22331 5.94914 9.64941 5.31519 10.1744 5.31519C10.6994 5.31519 11.1255 5.94914 11.1255 6.73026Z" fill="white" fill-opacity="0.5"/>
</svg>
