<svg width="47" height="46" viewBox="0 0 47 46" fill="none" xmlns="http://www.w3.org/2000/svg">
<rect x="0.86792" y="0.50415" width="45.6531" height="45.2824" rx="10" fill="#1A66FF"/>
<path d="M29.2426 21.5731V23.9316C29.2426 25.3911 28.658 26.7908 27.6176 27.8228C26.5771 28.8549 25.1659 29.4347 23.6945 29.4347C22.223 29.4347 20.8118 28.8549 19.7713 27.8228C18.7309 26.7908 18.1463 25.3911 18.1463 23.9316V21.5731H16.5612V23.9316C16.562 25.6714 17.2091 27.3499 18.3787 28.6464C19.5484 29.9429 21.1587 30.7665 22.9019 30.9598V32.5793H19.7315V34.1516H27.6574V32.5793H24.487V30.9598C26.2302 30.7665 27.8405 29.9429 29.0102 28.6464C30.1799 27.3499 30.8269 25.6714 30.8278 23.9316V21.5731H29.2426Z" fill="white"/>
<path d="M23.6945 27.8623C24.7456 27.8623 25.7535 27.4482 26.4967 26.711C27.2399 25.9738 27.6575 24.974 27.6575 23.9315V16.07C27.6575 15.0275 27.2399 14.0277 26.4967 13.2905C25.7535 12.5534 24.7456 12.1392 23.6945 12.1392C22.6435 12.1392 21.6355 12.5534 20.8923 13.2905C20.1491 14.0277 19.7316 15.0275 19.7316 16.07V23.9315C19.7316 24.974 20.1491 25.9738 20.8923 26.711C21.6355 27.4482 22.6435 27.8623 23.6945 27.8623Z" fill="white"/>
</svg>

